<svg id="Capa_1" data-name="Capa 1" xmlns="http://www.w3.org/2000/svg" viewBox="0 0 128 128"><defs><style>.cls-1{fill:#55595c;}</style></defs><title>icono-</title><path class="cls-1" d="M29.32,64c0-17.8.06-35.6-.05-53.4a5.74,5.74,0,0,1,6-6q28.69.17,57.39,0a5.75,5.75,0,0,1,6,6q-.13,53.4,0,106.8a5.75,5.75,0,0,1-6,6q-28.69-.17-57.39,0a5.74,5.74,0,0,1-6-6C29.38,99.6,29.32,81.8,29.32,64ZM64,10.92H36.85c-2,0-2.77.73-2.77,2.77q0,19.94,0,39.88c0,2,.73,2.77,2.77,2.77H91.15c2,0,2.77-.73,2.77-2.77q0-19.94,0-39.88c0-2-.73-2.77-2.77-2.77ZM85.94,89.15c.46-12-9.86-21.39-20.5-21.94A21.93,21.93,0,1,0,63,111C76,111.61,86.47,100.67,85.94,89.15Z"/><path class="cls-1" d="M72.17,89.06a8,8,0,1,1-8.1-8A7.92,7.92,0,0,1,72.17,89.06Z"/></svg>