<svg id="Capa_1" data-name="Capa 1" xmlns="http://www.w3.org/2000/svg" viewBox="0 0 29 30"><defs><style>.cls-1{fill:#55595c;}</style></defs><title>icono-psvr</title><g id="P5zavk.tif"><path class="cls-1" d="M12.38,25.85c-2,0-3.58-1-5.21-1.71a23.42,23.42,0,0,1-4.27-2.5A4.6,4.6,0,0,1,.79,17.53,48.27,48.27,0,0,1,1,11.62,1.73,1.73,0,0,1,2.54,10C4,9.74,5.49,8.92,7,9.86c.35.22.61,0,.75-.34a1.29,1.29,0,0,0,0-1.15c-.84-1.3-.34-2.44.28-3.63.36-.68.73-.74,1.36-.42,1.7.85,3.43,1.65,5.14,2.48L27.36,13c.63.3,1.16.54.65,1.42-.42.73-.69,1.2-1.7.72-3.39-1.63-6.79-3.3-10.58-3.84a5.11,5.11,0,0,0-3,.31c-.22.1-.51.21-.47.52s.3.3.5.37a33.37,33.37,0,0,0,3.48,1.11c4.15.88,4.86,5.55,3,8.42C18.34,23.47,14.2,26.14,12.38,25.85Zm6.3-7.24c0-2.51-1.69-3.68-4-2.75a6.25,6.25,0,0,1-5,0,34.57,34.57,0,0,1-6.22-3.38c-.82-.57-1-.5-1.05.51-.05,1.5,0,3,0,4.51a3.29,3.29,0,0,0,1.47,2.93,29.55,29.55,0,0,0,7.25,3.71,3.56,3.56,0,0,0,2.53,0,12.52,12.52,0,0,0,3.59-2.12A4.12,4.12,0,0,0,18.68,18.61Z"/><path class="cls-1" d="M8.59,18.64c0,.91-.42,1.29-1.15,1a9.94,9.94,0,0,1-1.73-.84,1.17,1.17,0,0,1-.44-1.67c.36-.7.92-.38,1.38-.12C7.42,17.47,8.51,17.57,8.59,18.64Z"/></g></svg>