<svg id="Capa_1" data-name="Capa 1" xmlns="http://www.w3.org/2000/svg" viewBox="0 0 128 128"><defs><style>.cls-1{fill:#585858;}</style></defs><title>iconos-pop</title><g id="Le4Q6v.tif"><path class="cls-1" d="M103.19,38.74v5.06c-.87,1.42-1.11,3.33-2.6,4.25a5.53,5.53,0,0,0-2.44,4,13.37,13.37,0,0,1-4,7c-3.08,2.93-7,3.76-10.91,4.52-1.46.28-2,.61-.79,1.92,1.53,1.73,3,3.54,4.42,5.35,2.32,2.9,4.92,5.69,5.11,9.68a109.83,109.83,0,0,0,1.18,12.22c.48,3-1.63,5.4-3.78,7.39a2.51,2.51,0,0,1-3,.39c-1.18-.64-.6-1.7-.46-2.64a14.87,14.87,0,0,0,.3-2.28,1.74,1.74,0,0,0-.91-1.77c-.67-.26-.87.55-1.26.89-.6.52-1.21,1.08-2,.58s-.47-1.23-.28-1.9a17.94,17.94,0,0,1,1.24-4c2.07-3.62-.09-6.61-1.24-9.74a4.76,4.76,0,0,0-1.4-1.55c-.56-.51-1.07-.44-1.14.39-.33,3.82-1.63,7.53-1,11.46,1.2,7.61,2.59,15.22,2.23,23a2.65,2.65,0,0,0,2.09,2.95c1.4.46,2.72,1.13,4.09,1.67a4.13,4.13,0,0,1,2.76,4.07c.07,1.85-1.7,1.56-2.6,2.29H76.64c-2.4-.47-4.79-1.05-7.21-1.38-2.17-.29-2.92-1.33-2.92-3.49a111.34,111.34,0,0,0-1.21-17.18c-.19-1.21-.14-3.32-1.16-3.3-1.4,0-1.2,2.09-1.41,3.31a117.52,117.52,0,0,0-1.28,17c-.1,3-.19,3.09-3.1,3.72-2.33.5-4.73.57-7,1.36H41.24c-1.11-.62-2.64-.81-2.46-2.67a4,4,0,0,1,2.66-3.69c1.25-.48,2.45-1.07,3.72-1.47a3.14,3.14,0,0,0,2.45-3.6,67.54,67.54,0,0,1,.77-12.8c.94-6.57,2.68-13.12.63-19.78-.22-.7.22-1.85-.67-2s-1.33.88-1.88,1.49a3.67,3.67,0,0,0-.58,1.11c-1.3,3.32-2.31,6.63-.39,10.1a11.15,11.15,0,0,1,.77,2.4c.22.8.66,1.7-.26,2.3s-1.58-.08-2.19-.69c-1.25-1.25-1.67-.32-1.94.77s.2,2.08.34,3.11c.26,1.89-.82,2.8-2.61,2.1a5.19,5.19,0,0,1-1.88-1.3,9.85,9.85,0,0,1-2.16-10.54,6.28,6.28,0,0,0,.53-3.08A15.92,15.92,0,0,1,40.24,72,44,44,0,0,0,44,67.21c.76-1.14,2.76-2,2.31-3.17s-2.51-.72-3.86-1c-6.95-1.4-11.84-5-13.18-12.35a3,3,0,0,0-.74-1.7c-2-1.72-3-4-3.73-6.47V40c.75-1.56.68-3.51,2.09-4.75,1.68-1.48,2.08-3.36,2.16-5.48A42.65,42.65,0,0,1,31.62,16.6a15.73,15.73,0,0,1,8.11-9.24A31.45,31.45,0,0,1,50.91,4.63a165.66,165.66,0,0,1,25,0A45.56,45.56,0,0,1,85,6.13C91.49,8,95.72,12.07,97.47,18.59A45.15,45.15,0,0,1,99,27.92c.1,1.93-.25,4.16,1,5.67A18.92,18.92,0,0,1,103.19,38.74Z"/></g></svg>