<svg id="Capa_1" data-name="Capa 1" xmlns="http://www.w3.org/2000/svg" viewBox="0 0 128 128"><defs><style>.cls-1{fill:#55595c;}</style></defs><title>icono-videojuegos</title><path class="cls-1" d="M77.16,6.62,76.37,6a2.53,2.53,0,0,0-1.68-.56L11.85,8.28A3.31,3.31,0,0,0,9,11.82v99.5a3.36,3.36,0,0,0,2.61,3.53l60.52,7.69a2.49,2.49,0,0,0,1.74-.45l2.36-1.64a3.74,3.74,0,0,0,1.47-3.05L78.5,9.63A3.8,3.8,0,0,0,77.16,6.62Zm-9,109.12c0,1.92-1.31,3.38-2.76,3.17l-51.23-7.66A2.13,2.13,0,0,1,12.68,109V23c0-1.79,1.09-3.24,2.45-3.27l51.19-.92c1.41,0,2.55,1.49,2.52,3.34Z"/><path class="cls-1" d="M83.88,28.93q-1.08,0-2.15.07V58.2a6.19,6.19,0,1,1,0,11.6V99q1.07.07,2.15.07a35.07,35.07,0,0,0,0-70.14Z"/><path class="cls-1" d="M96.28,13l-.58-.58a1.77,1.77,0,0,0-1.24-.56H81.73v13.9q1.07-.06,2.15-.06A39.23,39.23,0,0,1,97.18,28l.08-12.29A3.87,3.87,0,0,0,96.28,13Z"/><path class="cls-1" d="M83.88,102.56q-1.07,0-2.15-.06v13.43l10.86.18a1.83,1.83,0,0,0,1.29-.57l1.74-1.69A4.07,4.07,0,0,0,96.71,111l0-10.61A39.25,39.25,0,0,1,83.88,102.56Z"/></svg>