<svg id="Capa_1" data-name="Capa 1" xmlns="http://www.w3.org/2000/svg" viewBox="0 0 128 128"><defs><style>.cls-1{fill:#55595c;}</style></defs><title>icono felpudo</title><path class="cls-1" d="M64,100.16H4.22c-1.22,0-1.12.24-1.07-1.12a16.61,16.61,0,0,1,.39-2.72c.2-1,.31-1.92.46-2.88.29-1.92.47-3.86.84-5.78a29.8,29.8,0,0,0,.42-3.16c.11-1.34.39-2.66.59-4,.14-.93.26-1.87.44-2.8.22-1.15.27-2.33.46-3.49.21-1.33.4-2.67.61-4,.36-2.23.51-4.49,1-6.71a26,26,0,0,0,.42-3.33,34.64,34.64,0,0,1,.54-3.65c.18-1,.31-1.92.46-2.88.29-1.92.47-3.86.84-5.78A21.86,21.86,0,0,0,11,44.73a17.83,17.83,0,0,1,.37-2.81c.28-1.35.46-2.71.66-4.06.28-1.9.49-3.8.83-5.69A15.47,15.47,0,0,0,13.26,29a1.44,1.44,0,0,1,0-.26c.15-.91.15-.91,1.08-.91h99.3c.93,0,1,0,1.06.92.09,1.38.38,2.73.56,4.09.12.93.35,1.85.48,2.79.1.71,0,1.43.19,2.15.2.89.26,1.81.43,2.71s.31,2,.47,3.05c.24,1.5.39,3,.64,4.5a44.21,44.21,0,0,1,.6,4.43c.08,1.28.39,2.54.59,3.81.15,1,.28,1.93.43,2.89.24,1.5.34,3,.63,4.51.17.87.27,1.75.41,2.63.25,1.61.38,3.24.66,4.85a40,40,0,0,1,.69,4.58c.09,1.5.47,2.95.59,4.44.07.85.32,1.68.46,2.53.09.57.15,1.14.19,1.71.13,1.58.46,3.11.69,4.67a29.1,29.1,0,0,1,.41,3.33,20.59,20.59,0,0,0,.39,2.72c.16,1,.35,1.91.46,2.88a10.52,10.52,0,0,1,.17,1.63c0,.35-.09.55-.49.51s-.52,0-.78,0Zm-.19-9.69h49c.23,0,.47,0,.7,0,.59-.05.72-.2.61-.77A16.61,16.61,0,0,1,114,88c-.13-1.53-.35-3-.58-4.55-.28-1.82-.35-3.66-.64-5.48-.17-1-.23-2.12-.41-3.17-.32-1.85-.36-3.73-.65-5.58-.17-1.08-.18-2.19-.39-3.26-.43-2.21-.48-4.47-.82-6.7-.16-1-.25-2.12-.41-3.17-.23-1.43-.31-2.87-.5-4.3-.15-1.11-.24-2.23-.38-3.34-.2-1.49-.46-3-.58-4.47-.07-.95-.18-1.89-.3-2.83s-.3-2.17-.45-3.25c-.12-.86-.24-1.72-.35-2.58a.42.42,0,0,0-.47-.41H88.87c-.31,0-.46.13-.51.46-.12.81,0,1,.82,1H105.6c.67,0,.74,0,.78.73.09,1.44.37,2.86.45,4.31a47.14,47.14,0,0,0,.62,5.15c.31,1.91.49,3.83.69,5.75.05.49.17,1,.19,1.46a26.49,26.49,0,0,0,.39,3.26c.29,1.91.4,3.84.66,5.75.15,1.08.19,2.18.36,3.26s.35,2.35.48,3.53c.14,1.37.23,2.75.39,4.11.2,1.72.48,3.43.68,5.15.15,1.23.19,2.47.38,3.69.09.57.1,1.15.19,1.72.17,1.08.34,2.17.45,3.25s.06,1-.94,1l-16.66,0-64.23,0H15.81c-.29,0-.38-.09-.38-.4a22.45,22.45,0,0,1,.38-3.79c.14-1,.31-1.94.38-2.92s.29-2.22.35-3.34.23-2.12.37-3.17.32-2.28.47-3.42a27.78,27.78,0,0,0,.32-2.83,47.61,47.61,0,0,1,.54-4.73c.12-1,.28-1.94.38-2.91.13-1.14.2-2.28.33-3.42s.3-2,.39-3,.27-2.12.39-3.18.19-2.17.34-3.25c.21-1.49.35-3,.54-4.48.13-1,.36-2,.43-3s.17-2.06.27-3.09c.11-1.19.15-1.19,1.33-1.19H38.26c1,0,1.14-.13,1.22-.95a.4.4,0,0,0-.35-.5,2.52,2.52,0,0,0-.52,0H21.16c-.83,0-1,.12-1,.94a15.94,15.94,0,0,1-.24,1.89c-.21,1.48-.33,3-.51,4.44s-.36,2.81-.54,4.21-.47,2.84-.55,4.27c-.06,1.07-.22,2.13-.34,3.19-.16,1.4-.41,2.79-.58,4.19-.13,1-.18,2.11-.3,3.16-.34,2.83-.83,5.64-1,8.49-.15,2.07-.56,4.12-.8,6.19-.14,1.14-.24,2.28-.37,3.43-.15,1.35-.34,2.7-.52,4-.14,1-.33,2-.45,3.08s-.18,2.12-.29,3.18c-.09.8-.06.86.71.89H63.8Zm1.36-53.14h0q0,2.27,0,4.53c0,1.36-.23,1.47,1.51,1.43.76,0,.86-.11.87-.85,0-1.25,0-2.5,0-3.75,0-.7,0-1.39,0-2.09,0-.13,0-.32.1-.36s.19.18.28.29a.76.76,0,0,1,.08.15c.75,1.47,1.52,2.93,2.23,4.42A1.3,1.3,0,0,0,71.4,42a1.23,1.23,0,0,0,1.31-.83c.43-1.23,1.19-2.32,1.61-3.56a5.33,5.33,0,0,1,.55-1c.05-.09.09-.23.23-.2s0,.16,0,.25c.08.69,0,1.39.12,2.08.13,1,.14,2,.17,3,0,.44-.3.92.12,1.32s.94.21,1.42.21c.76,0,.86-.09.82-.86-.08-1.54-.12-3.08-.15-4.62a28.58,28.58,0,0,1-.06-3,15.74,15.74,0,0,0-.17-2.51c-.06-.85-.06-.85-.92-.86h-.17c-1.48,0-1.4-.31-2.18,1.43s-1.6,3.53-2.45,5.28c-.07.15-.18.43-.25.43s-.26-.26-.37-.42a3,3,0,0,1-.24-.46c-.85-1.74-1.7-3.48-2.53-5.23a1.44,1.44,0,0,0-1.61-1,2.45,2.45,0,0,1-.35,0c-1.17,0-1.17,0-1.17,1.13Q65.16,34.93,65.16,37.33ZM48,40.58c0,.48,0,.8,0,1.12s0,.64-.06,1,.1.63.52.63,1,0,1.57,0,.71-.27.67-.73c-.11-1.37.25-2.72.18-4.08A6.16,6.16,0,0,1,50.87,37a40.24,40.24,0,0,0,.18-4.85c0-.62-.07-.71-.68-.73-.46,0-.93,0-1.4,0a.49.49,0,0,0-.53.47c0,.2,0,.41,0,.61-.14,1-.09,2.08-.15,3.12,0,.41-.17.56-.58.55-1,0-2,0-3,0-.82,0-.87,0-.77-.84.13-1.07.13-2.14.18-3.21,0-.58-.07-.67-.62-.7s-1,0-1.48,0a.42.42,0,0,0-.49.38,6.77,6.77,0,0,0-.2,1.55,30.51,30.51,0,0,1-.11,3.3A20.85,20.85,0,0,1,41,39.51c-.16,1,0,2.08-.25,3.11-.1.45.12.63.59.66s.81,0,1.22,0c.79,0,.91-.12,1-.9q.12-1.78.2-3.56c0-.37.09-.61.53-.61,1.1,0,2.21,0,3.31,0,.42,0,.57.2.54.59C48.1,39.46,48.07,40.1,48,40.58ZM63.73,37.2A5.07,5.07,0,0,0,62,32.79a5.56,5.56,0,0,0-8,.35,6,6,0,0,0-1.59,5.32,5.43,5.43,0,0,0,2.07,3.69,5.81,5.81,0,0,0,4.95,1,5,5,0,0,0,2.9-1.65A5.94,5.94,0,0,0,63.73,37.2Zm19.71,6.1h2.27c1.47,0,1.47,0,1.35-1.44C87,41,87,41,86.12,41,85,41,84,41,82.9,41c-.38,0-.52-.13-.51-.5,0-.58,0-1.16,0-1.74,0-.39.15-.52.5-.52h1.92c1,0,1,0,.93-1,0-.06,0-.12,0-.17,0-.87-.08-.91-1-.92h-2c-.24,0-.47,0-.5-.34,0-.52-.11-1-.14-1.56s.13-.66.65-.67H85.6c.86,0,.86,0,.91-.86,0-.09,0-.17,0-.26,0-.84-.17-1-1-1H80.22c-.81,0-.81,0-.85.83-.12,2.06.21,4.11.18,6.17,0,.74.17,1.49.13,2.25a7.18,7.18,0,0,0,.08,1.91c.14.64.22.71.88.72C81.58,43.31,82.51,43.3,83.44,43.3Z"/><path class="cls-1" d="M55.1,37.4a5.89,5.89,0,0,1,.21-1.81,2.69,2.69,0,0,1,2.74-2,2.65,2.65,0,0,1,2.71,1.79,5.49,5.49,0,0,1-.11,3.92A2.69,2.69,0,0,1,57.84,41a2.6,2.6,0,0,1-2.58-2A3.92,3.92,0,0,1,55.1,37.4Z"/></svg>