<svg id="Capa_1" data-name="Capa 1" xmlns="http://www.w3.org/2000/svg" viewBox="0 0 128 128"><defs><style>.cls-1{fill:#55595c;fill-rule:evenodd;}</style></defs><title>icono seminuevos</title><path class="cls-1" d="M28.58,80l8-14.16,7.72,4.31-13-22.5-25.52,0,7.54,4.8-5.06,8.8A13.93,13.93,0,0,0,15.16,80Zm-5-44.46L36.07,14.32c3.82-5.54,15.3-6.4,19.65.2l5.4,9.26L46.86,48.63,23.61,35.51Zm30.25-27a10.31,10.31,0,0,1,5.53,4.33L73.51,38.11l-7.59,4.53h26l12.73-22.12L96.7,24.65,88.9,11.19c-1.05-1.86-2.81-2.4-4.8-2.53L53.86,8.53Zm54.63,32.52,12.74,21c3.07,6-1.63,16.5-9.5,17.21L101,79.63,85.91,55.29l22.58-14.24Zm9.4,39.43a10.31,10.31,0,0,1-6.44,2.81l-28.93.45q-.19-4.42-.38-8.83L69.81,97.78l13.43,21.7q.07-4.47.13-8.94l15.55-.47c2.14,0,3.45-1.33,4.5-3l14.47-26.56ZM59.32,110.32q-.14-13.35-.26-26.7c-9.55,0-33,.05-42.58.08a5.79,5.79,0,0,1-4.84-2.13L27,107.84c.81,1.53,2.35,2.27,4.59,2.28l27.75.2Z"/></svg>