<svg id="Capa_1" data-name="Capa 1" xmlns="http://www.w3.org/2000/svg" viewBox="0 0 128 128"><defs><style>.cls-1{fill:#585858;}</style></defs><title>iconos-retro</title><g id="a4gByz.tif"><path class="cls-1" d="M64,85.07H39c-.95,0-.95,0-.95.94q0,4.18,0,8.36c0,.86,0,.87.9.87H57.84c1,0,1,0,1,1,0,2.92,0,5.84,0,8.76,0,.64-.2.85-.84.85q-9.69,0-19.38,0c-.63,0-.85-.21-.85-.84,0-2.9,0-5.8,0-8.69,0-.64-.19-.84-.83-.83-2.92,0-5.84,0-8.76,0-.87,0-.9,0-.9-.89q0-9.52,0-19c0-1,0-1-1-1-2.83,0-5.66,0-8.5,0-.62,0-.79.19-.79.8q0,9.56,0,19.12c0,1,0,1-1,1H7.26c-.87,0-.91,0-.91-.89q0-15,0-30.07c0-.63.24-.8.82-.79,2.9,0,5.8,0,8.69,0,.88,0,.9,0,.9-.88q0-4.28,0-8.56c0-.94,0-.95,1-.95,2.94,0,5.89,0,8.83,0,.6,0,.81-.16.8-.78,0-2.9,0-5.8,0-8.69,0-.87,0-.89.9-.89,2.94,0,5.89,0,8.83,0,.57,0,.77-.16.76-.75q0-4.35,0-8.69c0-.59-.19-.77-.77-.76-2.92,0-5.84,0-8.76,0-.89,0-1-.07-1-.93q0-4.48,0-9c0-.81.05-.86.88-.86,3,0,6,0,9,0,.67,0,.88.21.87.88,0,2.92,0,5.84,0,8.76,0,.69.22.85.87.85,2.88,0,5.75,0,8.63,0,.82,0,.86,0,.87.86,0,2.94,0,5.89,0,8.83,0,.61.17.79.79.79q14.83,0,29.67,0c.65,0,.82-.2.82-.83,0-2.92,0-5.84,0-8.76,0-.85,0-.89.91-.89,2.88,0,5.75,0,8.63,0,.63,0,.84-.18.83-.82,0-2.9,0-5.8,0-8.69,0-.88.07-1,.94-1,3,0,6,0,9,0,.61,0,.87.15.86.82,0,3,0,6.06,0,9.09,0,.79-.06.85-.89.85H91.08c-.88,0-.88,0-.88.89q0,4.21,0,8.43c0,.86,0,.86.89.86h8.76c.91,0,.94,0,.94.92q0,4.28,0,8.56c0,.86,0,.87.89.87h8.56c1,0,1,0,1,1q0,4.25,0,8.5c0,.9,0,.91.94.91h8.56c.87,0,.9,0,.9.89q0,15,0,29.93c0,.89,0,.91-.87.91h-9c-.81,0-.86,0-.86-.87q0-9.56,0-19.12c0-1,0-1-.94-1-2.81,0-5.62,0-8.43,0-.65,0-.82.2-.82.83,0,6.37,0,12.74,0,19.12,0,1,0,1-1,1-2.92,0-5.84,0-8.76,0-.67,0-.87.19-.86.86,0,2.9,0,5.8,0,8.69,0,.61-.19.81-.79.81q-9.66,0-19.31,0c-.65,0-.84-.27-.84-.88,0-3,0-5.93,0-8.89,0-.86,0-.88.91-.88H88.9c1.08,0,1.08,0,1.08-1.08q0-4,0-8.1c0-1,0-1-1-1ZM38,58.69c0,1.48,0,3,0,4.45,0,.49.16.67.65.66q4.41,0,8.83,0c.41,0,.67-.07.67-.58q0-4.51,0-9c0-.43-.15-.58-.58-.58q-4.48,0-9,0c-.47,0-.61.19-.6.63C38,55.73,38,57.21,38,58.69Zm52,0c0-1.46,0-2.92,0-4.38,0-.52-.12-.75-.7-.75q-4.38,0-8.76,0c-.51,0-.7.14-.7.68q0,4.41,0,8.83c0,.53.19.69.7.69q4.38,0,8.76,0c.51,0,.71-.16.7-.69C90,61.65,90,60.19,90,58.73Z"/></g></svg>