<svg id="Capa_1" data-name="Capa 1" xmlns="http://www.w3.org/2000/svg" viewBox="0 0 128 128"><defs><style>.cls-1{fill:#585858;}</style></defs><title>iconos-totaku</title><path class="cls-1" d="M76.69,125.07c-5.38-.78-10.76-1.88-16.22-.87s-11,.32-16.47-.38c-3.17-.4-6.35-.81-9.53-1.11-1.62-.15-2.53-.73-2.47-2.51.09-3.06,0-6.13.16-9.19.13-2.49.93-3.19,3.41-3.48,3.79-.44,7.57-.89,11.37-1.26,1.1-.11,1.81-.4,1.84-1.66a8.23,8.23,0,0,1,2-4.83c1.53-2,3.37-3.76,4-6.32.29-1.14,1.71-1.26,2.32-2.21s1.37-1.77.23-2.84c-.63-.59-.42-1.24,0-1.84s1.11-1.39,1.59-2.13c1.21-1.87,2-3.69,1-6.08-.95-2.21-2.3-4.56-1.69-7.05C60,64.4,56.93,58.69,54,52.95a35.71,35.71,0,0,1-3.09-8.2c-.28-1.18-.61-1.74-1.87-.87-3.25,2.25-6.54,4.43-9.83,6.63A2.26,2.26,0,0,0,38,52.91c.69,3.08-.33,5.93-1,8.85-1,4.76,0,8.84,4,11.95a6.78,6.78,0,0,1,1.33,1.53c.92,1.34,2.77,2.39,1.81,4.39a7.57,7.57,0,0,1-6.75,3.83c-5.58-.57-7.68-3.21-6.9-8.77.25-1.76.53-3.43-.59-5.1a2,2,0,0,1,.6-2.91c2-.88,1.78-2.38,1.51-3.91a44.91,44.91,0,0,1-.35-7.54,13,13,0,0,1,3.87-9.56c3.69-3.81,7.16-7.84,10.73-11.78a14.2,14.2,0,0,1,5-3.85,4.94,4.94,0,0,0,2.19-1.78c.7-1,1.69-1.94,2-3.06.36-1.36-1.39-1.59-2.07-2.46a13.67,13.67,0,0,1-2.23-5.23c-.63-2.45-1.4-4.84-2.2-7.23-.61-1.84-.06-2.5,1.81-2a21.71,21.71,0,0,1,10.47,5.66c.85.88,1.75,2.81,2.9,2a5.57,5.57,0,0,0,2.42-4.24c.08-2.19.66-2.53,2.7-1.51.61.3.86.29,1-.35C70.55,8.35,71.44,7,71,5.3c-.23-.8-.75-2.09.34-2.3a2.7,2.7,0,0,1,3.09,1.31c.67,1.34,1.52,2.59,2.17,3.94.53,1.1,1.08,1.43,2.18.69a2.28,2.28,0,0,1,2.66-.38c.54.32,1-.11,1.48-.43s1-.84,1.63-.38S85,8.8,85,9.43a102.74,102.74,0,0,0-1,10.37c0,2.33.53,4.66-.31,7a3.48,3.48,0,0,0,.53,2.55A6.23,6.23,0,0,1,84.39,35c-.84,1.78-.25,2.47,1.75,2.39a10.34,10.34,0,0,1,2,.07c.94.15,2,.34,2.16,1.52a2.76,2.76,0,0,1-1.51,2.89c-1.84,1.07-3.65.51-5.94-.53,1.25,1.8,2,3.33,3.13,4.41,3.39,3.19,2.72,7.18,2.48,11.1-.09,1.49-.44,3-.61,4.45s-.51,2.86,1.52,3.41c.75.2.89,1.17.85,1.94a29,29,0,0,0,.65,5.67c.62,4-2.57,10.52-6.12,12.43-2,1.1-3.79.8-5.11-.95-.29-.39-.69-.38-1.07-.49-.61-.17-1.2-.38-1.26-1.14s.42-1,.9-1.25c3.48-1.93,3.92-5.54,4.88-8.85a13,13,0,0,0,.1-2.24c.2-2-.46-3.92.67-5.91.7-1.23-.15-2.92-.43-4.39-.56-2.86-1.74-5.62-1.31-8.63a1.23,1.23,0,0,0-.61-1.22c-1.61-1-3.23-2-4.84-3-.76-.48-1.25-.18-1.7.48-4.33,6.38-7.9,13-6,21.13.14.6.11,1.19.8,1.52a3.45,3.45,0,0,1,1.91,3.58c-.26,3.47,1.26,6.5,2.09,9.69a5.93,5.93,0,0,1,.11,3.76c-.71,1.91-1.34,3.85-2,5.77A2.36,2.36,0,0,1,69,94.32c-.68-.12-1.32-.14-1.43.67-.15,1.13-1,2.14-.58,3.34.12.34.58.31.92.25a2,2,0,0,1,1.75.37c1.43,1.74,3.5,1.47,5.34,1.84a5.73,5.73,0,0,1,4.78,3.94c.45,1.41,1.38,1.79,2.76,1.9,4,.34,8,.8,12,1.25,2.51.29,3.58,1.42,3.84,4.69.23,2.91.08,5.86,0,8.79,0,1.65-1.28,1.63-2.47,1.75-5.55.56-11.1,1.15-16.65,1.74a2.46,2.46,0,0,0-.57.21Z"/></svg>