<svg id="Capa_1" data-name="Capa 1" xmlns="http://www.w3.org/2000/svg" viewBox="0 0 128 128"><defs><style>.cls-1{fill:#585858;}</style></defs><title>iconos-almacenamientoexterno</title><path class="cls-1" d="M33.21,6H95a10.35,10.35,0,0,0,1.25.27,13.3,13.3,0,0,1,12.23,11.25c1.76,9.59,3.45,19.2,5.23,28.78q4,21.57,8.07,43.12v1a3,3,0,0,1-1.92-.61,25.07,25.07,0,0,0-13.53-3.35q-43.11.12-86.22,0A23.65,23.65,0,0,0,9.23,89.17c-.81.41-1.69,1.46-2.52.88s-.21-1.76,0-2.66Q13,52.72,19.36,18.06a14.62,14.62,0,0,1,6.06-9.78C27.79,6.6,30.51,6.38,33.21,6ZM64.37,72.12c1.35-.1,3.16-.15,4.95-.37,9-1.11,16.94-4.33,23.17-11.09,7.89-8.55,7.77-20.35-.21-28.83-13.27-14.1-40.4-15-54.78-1.88-10.93,10-10.41,24.64,1.21,33.88C46.09,69.69,54.71,71.85,64.37,72.12Z"/><path class="cls-1" d="M121.79,100.75v10.3c-2.21,6.92-6.74,10.75-14.21,10.72-1.63,0-3.26.12-4.89.12-17.51,0-35,.09-52.52,0-10.55,0-21.11.32-31.66-.34a12.85,12.85,0,0,1-12.28-13c0-1.72,0-3.43,0-5.15-.08-4.4,1.94-7.72,5.3-10.35a14.24,14.24,0,0,1,9.19-2.73c28.32,0,56.64.11,85-.09C113.61,90.23,119,93.24,121.79,100.75Zm-19.93-.85A6,6,0,0,0,95.6,106a6.12,6.12,0,0,0,6,6.4,6.22,6.22,0,0,0,6.29-6.12A6,6,0,0,0,101.86,99.91Z"/><path class="cls-1" d="M63.91,50.64l-.65,0c-4.56-.31-8-3.14-7.92-6.55s4-6.56,8.56-6.47A10.78,10.78,0,0,1,69.31,39c4.33,2.58,4.39,7.51.12,10.17A10.73,10.73,0,0,1,63.91,50.64Z"/></svg>