<svg id="Capa_1" data-name="Capa 1" xmlns="http://www.w3.org/2000/svg" viewBox="0 0 128 128"><defs><style>.cls-1{fill:#55595c;}</style></defs><title>icono-accesorios</title><path class="cls-1" d="M38.08,60a10.48,10.48,0,0,0-21,0v24a10.48,10.48,0,0,0,21,0Z"/><path class="cls-1" d="M72,49.5A10.48,10.48,0,0,0,61.56,60v1.81h.63q2.36,0,4.72,0h.15a8.94,8.94,0,0,1,5.46,1.82l.89.67L75,65.45l5.23,0h2.25V60A10.48,10.48,0,0,0,72,49.5Z"/><path class="cls-1" d="M19.65,34.53h.47A9.23,9.23,0,0,0,26.8,32l0,0c5.26-7,13.57-12.39,23-12.48,9.42.09,17.73,5.47,23,12.48l0,0a9.23,9.23,0,0,0,6.69,2.51h1.58c2.16,4.54,4.4,9.6,4.4,15V65.42l1.06-.79,1.55-1.16a8.69,8.69,0,0,1,5.25-1.72H94.5V49.5A45.25,45.25,0,0,0,94,43l.48.09A44.91,44.91,0,0,0,50.06,4.59h-.47A44.91,44.91,0,0,0,5.15,43.06L5.63,43a45.25,45.25,0,0,0-.48,6.53v21c0,10,9,9,9,9V49.5c0-5.37,2.24-10.43,4.4-15Z"/><path class="cls-1" d="M89.77,99a.24.24,0,0,0-.21.19.18.18,0,0,0,.2.18c.11,0,.17,0,.17-.18A.23.23,0,0,0,89.77,99Z"/><path class="cls-1" d="M70.74,99a.16.16,0,0,0-.09.05.22.22,0,0,0-.07.15c0,.11,0,.18.18.18a.21.21,0,0,0,.19-.18A.24.24,0,0,0,70.74,99Z"/><path class="cls-1" d="M123.09,98.44a72.33,72.33,0,0,0-9.48-24.21,24.77,24.77,0,0,0-5.25-6.1,8.83,8.83,0,0,0-6-2.12c-3,.09-5.93,0-8.89,0a4.47,4.47,0,0,0-2.81.89L87.88,69a3.84,3.84,0,0,1-2.41.74q-5.25,0-10.51,0A3.66,3.66,0,0,1,72.7,69L70,67a4.72,4.72,0,0,0-3-1c-3,0-6.07.06-9.11,0a8.22,8.22,0,0,0-5.08,1.63,23.31,23.31,0,0,0-5.93,6.65A71.28,71.28,0,0,0,37.73,97a57,57,0,0,0-1.34,8.63c0,.19-.06.38-.09.58v5.44a38.09,38.09,0,0,0,.68,3.89,15.55,15.55,0,0,0,1.13,3,7.78,7.78,0,0,0,5.69,4.28h2.5a14.86,14.86,0,0,0,7-4,63,63,0,0,0,6.81-7.88c.88-1.15,1.76-2.29,2.66-3.42a1.63,1.63,0,0,1,2.58-.36,9.41,9.41,0,0,0,8.74,1.19A8.53,8.53,0,0,0,76.45,107a1.72,1.72,0,0,1,1.09-.35q2.68,0,5.36,0A1.78,1.78,0,0,1,84,107a9.43,9.43,0,0,0,11.18,0,1.7,1.7,0,0,1,2.55.36c2.32,2.85,4.41,5.88,6.86,8.62a31.69,31.69,0,0,0,4.8,4.53,12.9,12.9,0,0,0,4.82,2.25h2.5c3.58-.69,5.5-3.08,6.55-6.37a28.09,28.09,0,0,0,.94-4.95v-5.29A75.29,75.29,0,0,0,123.09,98.44ZM64.19,83.16c0,.47-.21.67-.67.65s-1.18,0-1.76,0h0c-.51,0-1,0-1.54,0s-.93.19-.9.87c0,1.08,0,2.16,0,3.23,0,.57-.22.8-.78.78a14.06,14.06,0,0,0-1.54,0c-.65,0-.86-.26-.85-.88,0-1.08,0-2.16,0-3.23,0-.56-.22-.79-.79-.77-1.1,0-2.2,0-3.31,0-.57,0-.79-.24-.79-.79,0-2.81-.31-2.32,2.22-2.37.64,0,1.27,0,1.91,0s.76-.22.75-.75c0-1.08,0-2.16,0-3.23,0-.66.23-1,.9-.91.41,0,.83,0,1.25,0,1,0,1,.06,1,1s0,2,0,3c0,.69.26.91.9.89,1.05,0,2.11,0,3.16,0,.6,0,.85.21.82.82S64.18,82.6,64.19,83.16Zm6.58,20.51a4.39,4.39,0,0,1-4.44-4.42,4.44,4.44,0,1,1,4.44,4.42Zm19,0a4.43,4.43,0,0,1-4.46-4.41,4.44,4.44,0,1,1,8.87,0A4.39,4.39,0,0,1,89.76,103.67Zm6.33-19a2.18,2.18,0,0,1-2.15-2.22,2.15,2.15,0,0,1,2.18-2.19,2.2,2.2,0,0,1,0,4.4Zm5.5-9.87a2.17,2.17,0,0,1,0,4.34,2.17,2.17,0,1,1,0-4.34Zm.1,15.47a2.21,2.21,0,0,1,0-4.41,2.21,2.21,0,0,1,0,4.41Zm5.49-5.6a2.2,2.2,0,0,1,0-4.4,2.2,2.2,0,0,1,0,4.4Z"/></svg>