<svg id="Capa_1" data-name="Capa 1" xmlns="http://www.w3.org/2000/svg" viewBox="0 0 30 30"><defs><style>.cls-1{fill:#55595c;}</style></defs><title>icono-regalo</title><path class="cls-1" d="M28.11,23.86c-.26-.57-.47-1.17-.79-1.71a8.44,8.44,0,0,0-1.11-1.56,1,1,0,0,0-1.57,0c-.22.19-.41.41-.62.61-.42.41-.83.84-1.27,1.23a5.46,5.46,0,0,1-5.13,1.3,11.92,11.92,0,0,1-4-1.94l-.49-.36h4.71a2.83,2.83,0,0,0,.51,0,.77.77,0,0,0,.73-.86c0-.67,0-1.34,0-2a1.24,1.24,0,0,0-1.29-1.28H4.76q0-1.25,0-2.51v-.41h-3V27.46h3c0-.13,0-.26,0-.39v-.28c2.6.72,7.23,1.53,9.61,2,.69.14,1.39.24,2.09.36h1.62c.53-.08,1.06-.14,1.59-.24a14.34,14.34,0,0,0,8.41-4.51,1.12,1.12,0,0,1,.16-.12v-.18C28.2,24,28.15,23.95,28.11,23.86Z"/><path class="cls-1" d="M9.85,16.1h6.77V12.46H9.85V16.1Z"/><path class="cls-1" d="M16.62,7h2.72c.36-.29-.12-.74,1.24-1.6a7.28,7.28,0,0,0,2.49-3.3,2.6,2.6,0,0,0,0-.9,1,1,0,0,0-.87-.83H21.7A5.83,5.83,0,0,0,18,3.6,5.85,5.85,0,0,0,14.27.39h-.52a1.12,1.12,0,0,0-.91,1.36A5,5,0,0,0,13.23,3,5.93,5.93,0,0,0,15.51,5.5,15,15,0,0,0,16.27,7h-8V9.74h8.36Zm2.74-2.9a4,4,0,0,1,.85-1.43A2.71,2.71,0,0,1,21.14,2L21.33,2a.64.64,0,0,1,0,.5A3.09,3.09,0,0,1,20,4.22a1.17,1.17,0,0,1-.24.12c-.08,0-.2.06-.24,0S19.32,4.24,19.36,4.12Zm-3.06.26a2.54,2.54,0,0,1-.81-.53,2.85,2.85,0,0,1-.92-1.5,2.2,2.2,0,0,1,0-.39,1.59,1.59,0,0,1,.66.29,3.28,3.28,0,0,1,1.18,1.39c.08.17.15.35.21.53a.17.17,0,0,1,0,.14C16.53,4.46,16.5,4.46,16.3,4.38Z"/><path class="cls-1" d="M19.9,21.63s-.05.08-.06.13c0,.32,0,.2,0,.51h.09l.08,0c2-.78,3.22-2.33,4.61-4a2.2,2.2,0,0,1,1.44-.66v-5.1H19.62c0,1.39,0,2.76,0,4.13,0,.08.3.17.38.23a1.06,1.06,0,0,1,.5.78c0,1,0,2,0,2.94C20.48,21,20.42,21.45,19.9,21.63Z"/><rect class="cls-1" x="19.34" y="7.02" width="8.36" height="2.72"/></svg>