<?xml version="1.0" encoding="utf-8"?>
<!-- Generator: Adobe Illustrator 21.0.0, SVG Export Plug-In . SVG Version: 6.00 Build 0)  -->
<svg version="1.1" id="Capa_1" xmlns="http://www.w3.org/2000/svg" xmlns:xlink="http://www.w3.org/1999/xlink" x="0px" y="0px"
	 viewBox="0 0 128 128" style="enable-background:new 0 0 128 128;" xml:space="preserve">
<style type="text/css">
	.st0{fill:#55595C;}
</style>
<title>merchan</title>
<path class="st0" d="M79.4,42.3l7.1,7.2c-2.7,4.8-4,10.2-3.8,15.6c0,5.2,0.9,10.1,3.5,14.7c0.2,0.5,0.2,1.2-0.1,1.7
	c-2,2.2-4.1,4.2-6.1,6.2c-10.4-5.1-20.6-5.5-30.9-0.5c-0.6,0.2-1.3,0.1-1.8-0.3c-2.1-1.9-4.1-3.9-6.1-5.9
	c5.4-10.5,5.5-20.9,0.6-31.2l7.2-7.2c4.2,2.6,9.5,3.5,14.8,3.6C69.3,46.4,74.7,45,79.4,42.3z M57.6,57.6v5.8h12.8v-5.8H57.6z"/>
<path class="st0" d="M88.6,53.7c1.2-1.5,2.2-3.1,3.5-4.5c0.6-0.4,1.3-0.5,2-0.3c9.2,1.6,17.9-4.6,19.5-13.8S109,17.1,99.8,15.5
	s-17.9,4.6-19.5,13.8c-0.3,1.5-0.3,3-0.2,4.5c0.3,2.8-1.4,4.8-5,5.9C71.2,31.1,75,19,83.7,13c10.6-7.3,25-4.6,32.3,5.9
	c5.6,8.1,5.5,18.8-0.3,26.8C109.6,54.3,97.4,58,88.6,53.7z"/>
<path class="st0" d="M53.2,40.2c-1-0.6-2-1.1-2.8-1.7c-1.7-0.8-2.5-2.7-2.1-4.5c1-8.2-4.2-15.9-12.2-18.1c-9-2.5-18.3,2.7-20.8,11.7
	C13.3,34.5,16,41.9,21.9,46c3.3,2.5,7.4,3.5,11.4,3c1.7-0.4,3.4,0.4,4.2,2c0.7,1,1.2,2,1.8,3c-9,4-20.9,0.1-27-8.7
	C5.2,34.5,8.1,20.1,18.7,13c7.8-5.2,18-5.2,25.8,0C53.4,19,57.3,30.9,53.2,40.2z"/>
<path class="st0" d="M88.4,75.2c9-4.4,21-0.7,27.5,8.1s5.3,21.4-2.4,29.5c-7.8,8-20.1,9.3-29.4,3.2c-8.6-5.6-12.8-17.6-9.1-26.5
	c1.7,1.3,3.3,2.4,4.8,3.7c0.4,0.3,0.3,1.3,0.2,2c-0.5,7.1,3.5,13.8,10,16.8c8.5,3.8,18.5-0.1,22.3-8.7c2-4.5,1.9-9.7-0.3-14.2
	c-3.3-6.9-10.8-10.6-18.3-9.2c-1.7,0.4-2.7,0-3.5-1.5C89.6,77.5,89,76.4,88.4,75.2z"/>
<path class="st0" d="M53.3,89.3c3.9,9.1-0.3,21.1-9,26.8c-10.7,7-25.1,4-32.1-6.7c-5.5-8.3-5-19.2,1.1-27.1
	c7.6-9.7,19.8-10.4,26.4-7.2c-1,1.6-1.9,3.1-3,4.6c-0.3,0.4-1.3,0.4-1.9,0.3c-13.2-2.1-23.4,10-19,22.5c3.2,8.7,12.9,13.2,21.6,10.1
	c6.8-2.5,11.3-9.1,11.1-16.3c0-1.1-0.4-2.7,0.2-3.4C50.2,91.5,51.7,90.3,53.3,89.3z"/>
<path class="st0" d="M45.8,40.3l-6.5,6.5c-2.8-3.2-6.8-4.5-10.9-5.8c-4.7-1.8-7-7-5.2-11.7c1.8-4.7,7-7,11.7-5.2l0,0
	c2.7,1,4.8,3.3,5.5,6.1c0.5,1.9,1.3,3.7,2.1,5.5C43.6,37.3,44.6,38.8,45.8,40.3z"/>
<path class="st0" d="M88.6,46.9L82,40.2c3.3-2.9,4.5-7,5.9-11.1c1.4-3.9,5.6-6,9.8-5.4c4,0.6,7.1,3.9,7.5,7.9
	c0.4,4.3-1.9,8.3-5.9,9.5S91.5,43.8,88.6,46.9z"/>
<path class="st0" d="M89.1,83.4c2.6,2.9,6.4,4.1,10.3,5.4c3.5,1,5.9,4.3,5.9,7.9c0.3,3.7-1.8,7.1-5.1,8.7c-3.4,1.7-7.4,1-10.1-1.7
	c-1.1-1.1-1.9-2.4-2.3-3.8c-1.1-3.7-2.6-7.2-5.3-9.8L89.1,83.4z"/>
<path class="st0" d="M45.5,90c-2.7,2.6-4,6.2-5.2,10s-4.6,6.2-8.7,6.2c-5-0.1-9-4.1-8.9-9.1c0-2.6,1.2-5,3.1-6.7
	c1.1-0.9,2.3-1.5,3.6-1.9c3.6-0.9,6.8-2.7,9.5-5.2L45.5,90z"/>
</svg>
