<?xml version="1.0" encoding="utf-8"?>
<!-- Generator: Adobe Illustrator 21.0.0, SVG Export Plug-In . SVG Version: 6.00 Build 0)  -->
<svg version="1.1" id="Capa_1" xmlns="http://www.w3.org/2000/svg" xmlns:xlink="http://www.w3.org/1999/xlink" x="0px" y="0px"
	 viewBox="0 0 128 128" style="enable-background:new 0 0 128 128;" xml:space="preserve">
<style type="text/css">
	.st0{fill:#55595C;}
</style>
<title>merchan</title>
<path class="st0" d="M75.4,122.9c-8,0-15.9,0-23.9,0c-6.7,0-13.3,0.1-20,0.2c-1.3,0.1-2.6-0.5-3.3-1.6c-2.7-3.6-2.2-2-2.2-6.4
	c0-3,0.1-6.1,0-9.1c-0.1-1.8,1.3-2.4,2.1-3.6c0.7-0.9,1.5-0.6,2.3-0.6c4.9,0,9.8,0,14.6,0h0.4c1.9-0.1,1.9-0.1,1.2-1.9
	c-0.8-1.4-1-3-0.5-4.5c0.7-2.1,2-3.3,4.1-3.4c1.6-0.1,2.2-1.2,3-2.1c0.3-0.3,0.2-1.1,0.1-1.7c-0.5-2.6-1.2-5.1-1.8-7.7
	s-1.1-5-1.7-7.5c-0.2-0.7-0.5-1.3-0.9-1.9c-1.5-2.1-2.3-4.5-2.4-7c-0.3-4,0.7-8,2.8-11.5c1.2-2,1.2-2.3-0.2-4.2
	c-3.5-4.9-7.1-9.8-10.6-14.8c-0.5-1-1.7-1.6-2.8-1.4c-1,0.3-2-0.2-2.3-1.2c0,0,0,0,0,0c-0.3-1-1.2-1.1-2-1.4
	c-3.2-1.1-6.2-2.9-8.7-5.2c-0.3-0.2-0.6-0.5-0.9-0.8c-1.8-2.2-1.1-4.7,1.6-5.6c0.4-0.1,0.7-0.3,1.1-0.5c1.3-1.1,3-1.5,4.6-0.9
	c1,0.3,2,0.5,3.1,0.6c1.4,0.3,2.8-0.1,3.9-0.9c1.2-0.8,2.2-1.9,2.9-3.2c0.6-1.2,1.8-2.1,3.1-2.1c1.9-0.2,2.7,0.9,2,2.7
	c-0.2,0.4-0.4,0.7-0.5,1.1c-0.6,1.1-0.8,2.4-0.4,3.6c0.2,0.6,0.2,1.2,0.2,1.8c-0.1,0.8,0.3,1.5,1,1.9c0.9,0.3,1.4,1.4,1.1,2.3
	c-0.5,1.2,0.1,1.9,0.8,2.6c1.9,2.1,3.9,4.1,5.8,6.2c0.7,0.7,1.3,1.5,2,2.2c0.2,0.2,0.4,0.3,0.7,0.3c0.2,0,0.3-0.4,0.4-0.6
	c0.3-1.3,0.7-2.6,1-4c0.1-0.4,0.1-0.9,0-1.4c0-0.9-0.2-1.7-0.2-2.6c-0.1-1.3,0.7-2.5,1.8-3c1.1-0.6,1.2-1.1,0.2-1.9
	c-0.4-0.4-0.9-0.6-1.3-0.9c-1.8-1.6-1.5-4,0.7-5c1.1-0.4,1.9-1.2,2.4-2.2c1.4-2.9,3.6-5.4,6.4-7c4-2.2,8-1.5,11.8,0.5
	c3,1.6,5.4,4.1,7,7.1c1.4,2.4,2.5,5,3.1,7.6c0.2,1.2,0.9,2.3,1.7,3.2c2.1,2.2,2.3,5.6,0.4,7.9c-0.7,0.8-1.2,1.9-1.2,3
	c-0.4,3.1-2.7,5.6-5.8,6.1c-1,0.1-1.3,0.3-1.4,1.4c-0.1,1.2-0.7,1.7-2.2,1.8c-0.9,0-1.4,0.1-1.9,0.9c-0.2,0.4-1,0.4-1.6,0.6
	c-0.2,0.1-0.3,0.2-0.4,0.4c0.1,0.1,0.3,0.3,0.4,0.3c1.2,0.4,2.5,0.8,3.7,1.3c4.2,1.6,8,4.1,11.1,7.3c2.7,2.5,2.9,6.7,0.6,9.5
	c-1.1,1.4-2.4,2.6-3.7,3.8c-0.6,0.6-1.2,1-1.4,1.8c-0.1,0.4-0.6,1.1-1,1.1c-1.1,0.1-1.4,0.7-1.5,1.7c-0.2,1.1-0.8,2.1-1.7,2.8
	c-0.5,0.4-0.9,0.8-1.2,1.3c-0.7,0.8-0.7,2-0.2,2.9c1.4,2.7,2.5,5.5,3.8,8.2c0.4,0.6,0.8,1.1,1.4,1.6c0.3,0.3,0.8,0.7,0.8,1
	c-0.2,1.2,0.6,1.3,1.4,1.5c0.4,0.1,0.8,0.2,1.1,0.3c2.3,0.6,4,2.6,4.1,5c0,0.3,0,0.7,0.1,1c0.1,1.7,0.2,1.8,2,1.9c2.2,0,4.5,0,6.7,0
	c2.3-0.1,4.3,1.7,4.4,4c0,0.1,0,0.3,0,0.4c0,3.6,0,7.2,0,10.9c0,0.9-0.3,1.8-0.9,2.5c-2.5,3.1-2.5,3.1-6.5,3.1L75.4,122.9z
	 M70.4,101.9H71c1.9,0,1.9-0.1,1.9-2.1c0-1.6-0.2-3.2-0.3-4.8c0-1.2-0.3-2.3-0.8-3.3c-1.8-3.2-3.7-6.4-5.5-9.6
	c-0.2-0.4-0.4-0.7-0.7-1c-0.1-0.1-0.3-0.2-0.5-0.2c0,0.2-0.1,0.4-0.1,0.5c0.6,2,1.2,4,1.7,6c0.5,1.6,0.6,3.5,1.5,4.8
	c1,1.2,1.4,2.9,1,4.4c-0.1,1-0.3,2-0.6,3c-0.7,1.9-0.7,2.1,1.4,2.1L70.4,101.9z M77.9,62.3c0,0.6,0.2,1.1,0.3,1.7
	c0.1,0.3,0.9,0.6,1,0.5c0.8-0.6,1.9-1.3,2-2.1s-1.1-0.7-1.9-0.8c-0.2,0-0.3-0.2-0.5-0.3C78.1,61,77.9,61.2,77.9,62.3L77.9,62.3z"/>
</svg>
