<?xml version="1.0" encoding="utf-8"?>
<!-- Generator: Adobe Illustrator 21.0.0, SVG Export Plug-In . SVG Version: 6.00 Build 0)  -->
<svg version="1.1" id="Capa_1" xmlns="http://www.w3.org/2000/svg" xmlns:xlink="http://www.w3.org/1999/xlink" x="0px" y="0px"
	 viewBox="0 0 128 128" style="enable-background:new 0 0 128 128;" xml:space="preserve">
<style type="text/css">
	.st0{fill:#55595C;}
</style>
<title>merchan</title>
<path class="st0" d="M31.8,123.8v-10.5c-5.4-0.3-10.1-2.2-13.7-6.1c-3.2-3.2-5-7.6-5-12.1c0-17.9,0-35.8,0-53.7
	c0-6.1,5-13.6,11.3-16.1c2.9-1.2,6.1-1.7,9.2-1.6c1.2,0,2.4,0,3.8,0c0-5-0.2-9.9,0.1-14.7c0.1-2.4,2.4-4,4.8-4h44
	c2.8-0.1,5.1,2,5.2,4.8c0,0.2,0,0.3,0,0.5c0,4.4,0,8.7,0,13.4c1.5,0,2.8,0,4.2,0c5.3-0.4,10.5,1.5,14.3,5.2
	c3.5,3.3,5.8,7.4,5.8,12.4c0,17.4-0.2,34.8,0.1,52.1c0.2,10.6-8.1,19.5-18.7,19.8v10.5H31.8z M64.3,91.5c5.9,0,11.6-1.9,16.3-5.4
	c1.8-1.4,2.3-3,1.2-4.4s-2.6-1.4-4.5-0.1c-8.2,5.8-17.8,5.8-25.9,0c-1.9-1.4-3.5-1.4-4.5,0s-0.6,3,1.2,4.4
	C52.7,89.6,58.4,91.6,64.3,91.5z M80.5,67.2c3,0.1,5.5-2.3,5.6-5.3c0.1-3-2.3-5.5-5.3-5.6c-0.2,0-0.3,0-0.5,0
	c-3,0.1-5.4,2.5-5.4,5.5C75.1,64.8,77.5,67.2,80.5,67.2z M48.1,56.3c-3-0.1-5.5,2.3-5.6,5.3c-0.1,3,2.3,5.5,5.3,5.6
	c0.1,0,0.3,0,0.4,0c3-0.2,5.3-2.7,5.1-5.7C53.3,58.6,51,56.4,48.1,56.3z"/>
</svg>
