<?xml version="1.0" encoding="utf-8"?>
<!-- Generator: Adobe Illustrator 21.0.0, SVG Export Plug-In . SVG Version: 6.00 Build 0)  -->
<svg version="1.1" id="Capa_1" xmlns="http://www.w3.org/2000/svg" xmlns:xlink="http://www.w3.org/1999/xlink" x="0px" y="0px"
	 viewBox="0 0 128 128" style="enable-background:new 0 0 128 128;" xml:space="preserve">
<style type="text/css">
	.st0{fill:#55595C;}
</style>
<title>merchan</title>
<path class="st0" d="M32.6,123.2V37.5l-0.4-0.2l-9.9,14.5L5.4,41.6c0.4-0.6,0.7-1.2,1-1.7c4.6-7,9.2-13.9,13.6-20.9
	c2.9-4.9,7.6-8.4,13.1-9.9c5.7-1.6,11.6-2.9,17.4-4.4c0.7,0.9,1.3,1.9,2,2.7c7,8.5,17.5,8.5,24-0.3c1.6-2.1,2.8-2.3,5-1.7
	c4.7,1.3,9.3,2.3,13.9,3.5c5.6,1.4,10.5,5,13.5,10c4.7,7.5,9.6,14.9,14.7,22.6l-16.8,10.2l-9.9-14.5l-0.5,0.2v85.7L32.6,123.2z"/>
</svg>
