<?xml version="1.0" encoding="utf-8"?>
<!-- Generator: Adobe Illustrator 21.0.0, SVG Export Plug-In . SVG Version: 6.00 Build 0)  -->
<svg version="1.1" id="Capa_1" xmlns="http://www.w3.org/2000/svg" xmlns:xlink="http://www.w3.org/1999/xlink" x="0px" y="0px"
	 viewBox="0 0 128 128" style="enable-background:new 0 0 128 128;" xml:space="preserve">
<style type="text/css">
	.st0{fill:#55595C;}
</style>
<title>merchan</title>
<path class="st0" d="M75.3,23.4c-0.5,3.4-1,6.4-1.5,9.4c-0.3,0.8-0.7,1.6-1.3,2.3c-1.3,2.3-1.6,4.7-0.2,7c1.2,2.3,3.8,3.6,6.4,3.1
	c-4-7.9-4.4-15.7,0-23.5c3-5.5,8.1-9.5,14.1-11.1c12.5-3.3,25.2,4.1,28.6,16.5c3.2,12.2-3.9,25.3-15.8,28.5l-0.9-4
	c6.4-2.5,10.9-6.8,12.7-13.5c1.4-5,0.7-10.4-2-14.8c-5.3-9.1-16.9-12.1-26-6.9c-0.3,0.2-0.6,0.4-0.9,0.6c-10.3,7-10.4,19.5-6,25.8
	c2.4-1,2.4-6.2,0.6-7.9c-2.4-2.3-1.6-4.7-0.1-7.8c0.8,1,1.5,2,2.3,3c11,13,4,33.5-12.5,36.5c-4.9,1-9.9,0.3-14.3-1.9
	c-1-0.5-1.9-0.8-2.8,0c-1.3,1-2.3,0.1-3.3-0.5c-2.1-1.2-3.2-0.9-4.2,1.4c-0.4,1.1-0.8,2.2-1.2,3.3c-0.5,1.6-1.6,1.9-3,1.4
	c-1.2-0.4-2.4-0.9-3.7-1.3c-2.6-0.9-4.3,0.3-4.7,3.1s-0.4,3.7-3.6,3.4c-1.6-0.1-3.1,1-3.5,2.6c-0.7,2-1.9,2.9-4.2,2.9
	c-1.5,0-3.1,1.2-4.5,2c-1,0.7-2.2,0.8-3.3,0.3c-2.7-1-5.4-1.9-8.1-2.8c-1.1-0.1-1.8-1.1-1.6-2.2c0-0.1,0-0.2,0.1-0.3
	c0.4-2.8,0.9-5.5,1.6-8.2c0.6-1.1,1.5-2.1,2.7-2.6c11-6.5,22-12.9,33-19.2c1.3-0.6,2.1-1.9,2-3.4C45.9,32.5,55.7,22.4,68,22.3
	C70.5,22.3,72.9,22.6,75.3,23.4z M47.7,53.3c-0.4,0.2-0.7,0.3-1,0.5c-8.6,5-17.2,10-25.8,15c-2.2,1.3-4.4,2.7-6.6,4.1
	c-0.7,0.3-0.9,1.1-0.6,1.8c0.1,0.3,0.4,0.5,0.6,0.6c0.7,0.1,1.4-0.1,1.9-0.5C26.5,69,36.7,63.2,46.9,57.3C49.2,56,49.2,56,47.7,53.3
	z"/>
<path class="st0" d="M62.6,69.5c19.1,4.2,34.3-12.3,31-30.2c0.5,0.3,1,0.7,1.5,1.1c4.6,4.1,7.4,9.9,7.8,16.1
	c0.9,13.2-10.3,23.1-20.7,23.5c-1,0.2-2,0.7-2.6,1.6c-1,1.2-2.1,1.1-3.3,1.1c-2.2,0-3,0.9-2.7,3.1c0.2,1.2,0.4,2.4,0.6,3.6
	c0.4,1.1-0.2,2.3-1.3,2.6C72.6,92,72.4,92,72.3,92c-1.3,0.2-2.5,0.5-3.8,0.7c-2.7,0.6-3.6,2.3-2.7,4.8c1.2,3.2,1.1,3.1-1.6,5.3
	c-0.9,0.8-1.5,2-1.5,3.3c0.2,2.3-0.1,4-2.5,5.3c-1.1,0.6-1.8,2.2-2.5,3.4c-0.7,1.4-2,2.4-3.6,2.6c-2.5,0.4-5.1,1-7.6,1.5
	c-1,0.4-2.2-0.1-2.6-1.1c0-0.1-0.1-0.2-0.1-0.4c-0.9-2.3-1.7-4.6-2.4-7c-0.2-1.2,0-2.5,0.6-3.6c6.5-11.6,13-23.1,19.5-34.7
	C62.1,71.2,62.4,70.4,62.6,69.5z M67.2,75.3c-0.5,0.8-0.9,1.4-1.3,2.1c-1.9,3.3-3.8,6.6-5.7,9.9c-4,7.1-8,14.2-12,21.3
	c-0.8,1.5-0.4,2.7,1,2.6c0.7-0.2,1.3-0.7,1.6-1.3c6.1-10.7,12.2-21.4,18.4-32.1c0.1-0.3,0.2-0.6,0.3-0.8L67.2,75.3z"/>
</svg>
