<?xml version="1.0" encoding="utf-8"?>
<!-- Generator: Adobe Illustrator 21.0.0, SVG Export Plug-In . SVG Version: 6.00 Build 0)  -->
<svg version="1.1" id="Capa_1" xmlns="http://www.w3.org/2000/svg" xmlns:xlink="http://www.w3.org/1999/xlink" x="0px" y="0px"
	 viewBox="0 0 128 128" style="enable-background:new 0 0 128 128;" xml:space="preserve">
<style type="text/css">
	.st0{fill:#55595C;}
</style>
<title>merchan</title>
<path class="st0" d="M66.7,89.9c0-10,0.1-20.1,0-30.1c-0.3-2.9,1.5-5.5,4.2-6.4c15.5-6.5,31.1-13,46.6-19.5c0.6-0.3,1.2-0.5,1.9-0.7
	c1.3-0.3,2.1,0.2,2.2,1.6c0,0.5,0,0.9,0,1.4c0,18.3,0,36.6,0,54.9c0.2,2.6-1.3,5.1-3.7,6.2c-15.7,8.4-31.4,16.8-47.2,25.3
	c-0.6,0.3-1.2,0.6-1.8,0.8c-1.3,0.4-2-0.2-2.2-1.5c-0.1-0.7,0-1.3,0-2C66.7,109.9,66.7,99.9,66.7,89.9z M78.6,72
	c0,2.8,0.6,5,2.8,6.2s4.5,0.6,6.5-0.8c3.7-2.5,5.8-6.8,5.6-11.2c-0.1-4.9-4.3-7.2-8.5-4.8C81.2,63.6,78.8,67.6,78.6,72z M111.4,80.7
	c0-3-0.5-5.2-2.9-6.4s-4.6-0.2-6.4,1.4c-3.1,2.5-4.9,6.4-4.8,10.4c0,2.2,0.7,4.2,2.9,5.3s4,0.3,5.8-0.9
	C109.1,88.2,111.1,84.6,111.4,80.7L111.4,80.7z"/>
<path class="st0" d="M62,89.9c0,10.2,0,20.5,0,30.7c0,2.8-1,3.5-3.5,2.2c-16.1-8.6-32.1-17.2-48.2-25.8c-2-1-3.3-3.1-3.1-5.3
	c0-18.7,0-37.3,0-55.9c0-2.6,0.8-3.2,3.3-2.2c16,6.7,31.9,13.4,47.9,20.1c2.4,0.9,3.9,3.2,3.7,5.7C62,69.6,62,79.8,62,89.9z
	 M41.3,62.3c0.2,4.5,2.7,8.6,6.7,10.8c4.1,2.3,8.2,0,8.5-4.7c0.3-4.7-2-9.3-6.1-11.8c-1.9-1.3-4-1.8-6.2-0.6S41.4,59.3,41.3,62.3z
	 M25.9,73.5c0.5,4.6,2.4,8.7,6.9,11c3.6,1.8,7,0.1,7.5-3.8c0.7-5.1-1.4-9.2-5.4-12.3c-1.8-1.4-3.9-2.1-6.1-0.9S26.1,70.8,25.9,73.5z
	 M25.3,89.8c0-4.5-2.8-9.3-6.4-11.1s-6.8-0.2-7.3,3.7c-0.6,4.8,1.2,8.8,4.9,11.8c1.7,1.4,3.8,2.2,6,1.1S25.3,92.1,25.3,89.8z"/>
<path class="st0" d="M64.3,48.5c-1-0.2-1.9-0.5-2.8-0.8c-15.9-6.6-31.9-13.2-47.8-19.8c-0.6-0.2-1.1-0.5-1.6-0.8
	c-1.5-1.1-1.4-2.4,0.1-3.3c0.5-0.3,1.1-0.5,1.6-0.7C30,17.4,46.1,11.7,62.3,6c1.3-0.4,2.7-0.4,4,0c16.3,5.7,32.5,11.4,48.7,17.3
	c1,0.4,1.8,1.3,2.2,2.3c0.1,0.6-1.2,1.8-2,2.2c-16,6.7-32.1,13.3-48.2,19.9C66.1,48.1,65.2,48.3,64.3,48.5z M64,30.4
	c2.6-0.5,5.2-1.2,7.7-2.1c1.2-0.6,2-1.7,2.3-3c-0.3-1.3-1.1-2.4-2.3-3c-4.8-2.2-10.4-2.2-15.2,0c-1.2,0.6-2,1.7-2.4,3
	c-0.4,1.6,1,2.7,2.4,3.2C58.9,29.2,61.3,29.7,64,30.4z"/>
</svg>
