<?xml version="1.0" encoding="utf-8"?>
<!-- Generator: Adobe Illustrator 21.0.0, SVG Export Plug-In . SVG Version: 6.00 Build 0)  -->
<svg version="1.1" id="Capa_1" xmlns="http://www.w3.org/2000/svg" xmlns:xlink="http://www.w3.org/1999/xlink" x="0px" y="0px"
	 viewBox="0 0 128 128" style="enable-background:new 0 0 128 128;" xml:space="preserve">
<style type="text/css">
	.st0{fill:#55595C;}
</style>
<title>merchan</title>
<path class="st0" d="M105.4,25.4l-40.2,39l38.9,40.1c-10.6,11.8-31.9,20.6-53.7,15c-24.5-6.2-42.1-27.8-43-53.1
	c-1-24,13.9-46.5,36.8-55.1C65.6,3.1,89.8,8.7,105.4,25.4z M60.4,21.2c-5.6,0-10.1,4.5-10.1,10.1s4.5,10.1,10.1,10.1c0,0,0,0,0,0
	c5.6,0,10.1-4.5,10.1-10.1S65.9,21.2,60.4,21.2z"/>
</svg>
