<?xml version="1.0" encoding="utf-8"?>
<!-- Generator: Adobe Illustrator 21.0.0, SVG Export Plug-In . SVG Version: 6.00 Build 0)  -->
<svg version="1.1" id="Capa_1" xmlns="http://www.w3.org/2000/svg" xmlns:xlink="http://www.w3.org/1999/xlink" x="0px" y="0px"
	 viewBox="0 0 128 128" style="enable-background:new 0 0 128 128;" xml:space="preserve">
<style type="text/css">
	.st0{fill:#55595C;}
</style>
<title>merchan</title>
<path class="st0" d="M122.7,64.8c-0.3,27.3-19.7,50.5-46.5,55.7c-25.3,5.2-50.9-6.7-63.3-29.3C2.2,71.8,4.8,46,19.1,29.1
	C32,14,48.5,7.1,68.2,8.1c27,1.4,49.3,21.4,53.7,48.1C122.4,59,122.4,61.9,122.7,64.8z M80.8,22.9c-5-1.1-10.1-1-15.1,0.1
	c-10,2.2-13.6,10-10.4,18.4c0.7,2.2,1.1,4.6,1.1,6.9c0.1,2.8-1.3,4.5-4,5.4c-3.2,1-6.6,0.7-9.5-0.8c-2.9-1.3-4-3.4-3.5-6.5
	c0.3-1.5,0.8-3,1.5-4.4c1-1.8,2.2-3.4,3.5-5.3c-5,1.6-9.5,3.7-12.9,7.5c-3,3.3-4.3,7.2-3.1,11.6c0.9,3.3,3.2,5.5,5.9,7.4
	c2.2,1.5,4.3,3.1,6.4,4.9c1.9,1.8,2.6,4.6,1.7,7.1c-0.7,2.5-2.9,3.4-5.2,3.9c-3.8,0.8-7.3-1.3-8.7-5.3c-0.4-1.6-0.8-3.2-1-4.9
	c-5.4,3.5-5.7,6.5-4.7,11.9c2,11,9.5,17.7,19,22.2c11,5.2,22.6,6,34.4,3.8c8.2-1.5,15.6-5,21.2-11.4c5.5-6.2,7.9-13.7,8.5-21.8
	c0.8-10.1-2.2-18.8-9.8-25.6c-1.9-1.5-3.9-2.9-6-4.1c0.8,3.5,1.8,6.5,2.1,9.6c0.4,4.1,0.4,8.2,0.2,12.3c-0.3,4.2-2.7,6.9-6,7.7
	c-3.1,0.8-6.4-0.6-7.6-3c-1.5-3-0.8-5.8,1.9-8c3.4-2.7,4.1-7.6,1.4-11c-1.9-2.2-4-4.2-6.2-6c-2.8-2.6-5.8-5.2-6.6-9.1
	c-1.4-6.8,0.4-11.7,7.9-13.2C78.4,23,79.6,22.9,80.8,22.9z"/>
<path class="st0" d="M72,79.9c-2.4,2.4-5.7,3.5-9,3.2c-5.5-0.5-8-4.8-5.3-9.6c1.2-1.8,2.6-3.5,4.3-4.9c2.6-2.4,5.3-4.5,8.2-6.5
	c-0.3,0.6-0.6,1.2-1,1.7c-2.1,2.2-4.4,4.3-6.4,6.7c-1.4,1.6-2.6,3.4-3.3,5.4c-0.9,2.4,0.6,4.1,3.2,4.5c2.8,0.5,5.7-0.6,7.6-2.8
	c1.2-1.4,2.1-1.2,3.3,0c3.4,3.3,5.6,7,5.6,11.9c0.1,2.3-0.9,4.6-2.6,6.1c-2.5,2.3-5.6,3.6-9,3.8c4-2.6,9.5-3.7,9.4-10
	C76.8,85.6,74.8,82.6,72,79.9z"/>
</svg>
