<?xml version="1.0" encoding="utf-8"?>
<!-- Generator: Adobe Illustrator 21.0.0, SVG Export Plug-In . SVG Version: 6.00 Build 0)  -->
<svg version="1.1" id="Capa_1" xmlns="http://www.w3.org/2000/svg" xmlns:xlink="http://www.w3.org/1999/xlink" x="0px" y="0px"
	 viewBox="0 0 128 128" style="enable-background:new 0 0 128 128;" xml:space="preserve">
<style type="text/css">
	.st0{fill:#55595C;}
</style>
<title>merchan</title>
<path class="st0" d="M58.2,23.2c-0.3-1-0.6-2.1-0.7-3.2c-0.1-2-0.1-4,0-5.9c0.5-4.9,4-8.3,8.9-8.9c4.6-0.5,9,2.2,10.7,6.5
	c0.6,1.1,1.3,2.2,2.2,3.1c0.4,0.6,1.2,1.4,1,1.9s-1.1,1-1.8,1.2c-2.3,0.7-2.5,1.1-1.2,3.3c0.2,0.4,0.4,1.2,0.3,1.4
	c-1.6,1.6-1.9,3.7-2.7,5.6c-0.3,0.8-1.8,1.2-3.1,1.9c1,0.9,2,1.8,3,2.8c1.1,1.1,2.1,2.3,2.7,3.7c0.4,1-0.3,2.4-0.5,4
	c0.5,0,1.3,0,2,0c5.2-0.2,10.3-0.2,15.4-0.8c2.8-0.4,5.3,0.7,8,0.5c2.8-0.2,5.6-0.1,8.3,0.1c0.6,0,1.1,0.9,1.7,1.4
	c-0.6,0.5-1.1,1.4-1.8,1.4c-3.3,0.2-6.6,0.1-9.9,0.2c-0.9,0.1-1.7,0.4-2.5,0.8c-0.2,0.1-0.5,0.4-0.7,0.3c-2.9-0.8-2.1,1.4-2.2,2.8
	C95.2,49,95,50.6,96.9,52s1,5.6-0.9,6.9c-0.6,0.5-1,1.2-1.2,1.9c-0.1,0.5-0.2,1-0.1,1.6c-0.2,2.9-0.7,3.3-3.5,2.9
	c-1.1,0-2.1-0.9-2.1-2c0-0.1,0-0.2,0-0.3c0-1.1,0.2-2.1,0.2-3.2c0-1.6-0.8-2-2.3-1.5c-4.2,1.6-8.8,2.2-13.3,1.7
	c-1.1-0.2-2.1-0.8-2.7-1.7c-2.9-3.9-1.8-3.2-6.4-1.5c-0.6,0.3-1.1,0.7-1.6,1.1c2,2.7,3.9,5.2,5.8,7.8c0.8,1.1,1,2.6,2.3,3.6
	c1.6,1.2,2.6,3.1,3.9,4.6s1.5,2.9,0,4.1c2,4.9,3.9,9.6,5.8,14.4c0.2,0.6,0.2,1.3,0,1.9c-1.3,4.3-1.6,8.9-0.9,13.4
	c0.5,2.4,2.3,4.3,4.6,5c2.2,0.7,4.4,0.9,4.4,3.9c0,0.3,0.9,0.7,1.4,0.7c2.1,0.2,2.5,1.3,2.4,3.2s-1.4,2.1-2.7,2.2
	c-6.8,0.2-13.6,0.6-20.4,0.6c-16.7,0.1-33.3,0-50,0c-1.6,0-3.1,0.1-3.2-2.2c-0.1-2.9,0.3-3.7,2.8-4c1-0.2,1.8-0.3,2.1-1.6
	c0.2-0.7,1.4-1.1,2-1.7s1.8-1.6,2-2.5c0.5-2.3,0.8-4.7,1-7c0.2-1.8,0.4-3.6,0.8-5.3c0.5-1.9,1.7-3.7,0.8-5.8c-0.2-0.6,0-1.3,0.4-1.8
	c1.6-2.1,3.2-4.2,4.9-6.3c0.9-1.7,1.1-3.8,0.4-5.6c-0.2-0.4-0.2-0.9-0.1-1.3c1.4-3.7,2.8-7.4,4.2-11.1c0.1-0.3,0.1-0.6,0.2-0.8
	c-1.3-0.6-2.7-1.2-4.1-1.7c-1.4-0.3-2.2-1.7-1.9-3.1c0-0.1,0.1-0.2,0.1-0.3c0.7-3.1,1.4-6.2,3.9-8.5c0.3-0.3,0.4-0.6,0.5-1
	c0-1.2,0.1-2.3,1.7-2.4c1.8-0.2,3.8,0.8,4.3,2.2c0.1,0.4,0.2,0.8,0.4,1.5c0.3-0.5,0.5-0.7,0.5-0.9c0.1-2.9,0.1-5.7,0.2-8.6
	s0.2-5.8,0.6-8.7c0.3-3.2,2.4-5.9,5.4-7.1c2.8-1.2,5.5-2.6,8.2-3.9C57.8,23.5,58,23.4,58.2,23.2z M53.6,74c-1,1.6-2,3.2-3,4.7
	c-2.5,4-4.9,8.1-7.3,12.2c-0.4,0.7-0.4,1.5-0.7,2.2c-1.1,2.3-0.4,5.6-3.7,6.7c-0.2,0-0.2,0.3-0.3,0.5c-2.4,5.1-6.5,9.7-4.7,16h36
	c0.4-2.9,0.8-5.4,1.1-7.9c0-0.2,0-0.4-0.1-0.6c-0.7-3.3-1.4-6.6-2.2-9.9c-0.2-0.7-0.6-1.3-1.2-1.7c-1.5-1-2-2.1-0.8-3.7
	c0.8-1.1,0.6-1.9-0.7-2.5c-0.7-0.3-1.2-0.8-1.5-1.5C62.5,82.5,57.5,78.7,53.6,74C53.7,73.9,53.5,73.9,53.6,74z M79.3,49.7l-0.1,0.8
	c0.2,0.1,0.5,0.2,0.7,0.3c2.3,0.2,4.7,0.2,7,0c1.9-0.3,3.1-3.7,2-6C87.4,50.1,82.8,48.7,79.3,49.7z"/>
</svg>
