<svg id="Capa_1" data-name="Capa 1" xmlns="http://www.w3.org/2000/svg" viewBox="0 0 30 30"><defs><style>.cls-1{fill:#585858;}</style></defs><title>nav-smartphones</title><path class="cls-1" d="M21.8,0H8.2A1.77,1.77,0,0,0,6.43,1.77V28.23A1.77,1.77,0,0,0,8.2,30H21.8a1.77,1.77,0,0,0,1.77-1.77V1.77A1.77,1.77,0,0,0,21.8,0ZM13.69,1.18h2.62a.29.29,0,0,1,0,.59H13.69a.29.29,0,1,1,0-.59ZM16.75,28a.4.4,0,0,1-.4.4H13.65a.4.4,0,0,1-.4-.4v-.46a.4.4,0,0,1,.4-.4h2.71a.4.4,0,0,1,.4.4Zm5.13-2.25H8.12V2.95H21.88Z"/></svg>