<svg id="Capa_1" data-name="Capa 1" xmlns="http://www.w3.org/2000/svg" viewBox="0 0 30 30"><defs><style>.cls-1{fill:#585858;}</style></defs><title>nav-relojes</title><path class="cls-1" d="M22.52,13.38v.9c0,2.24,0,4.47,0,6.71a3.38,3.38,0,0,1-1.86,3.25.69.69,0,0,0-.22.21,5.68,5.68,0,0,0-1.11,3.42c0,.32,0,.64,0,1A1,1,0,0,1,18.17,30H11.25c-.84,0-1.18-.37-1.2-1.2a19.9,19.9,0,0,0-.13-2.15,5.23,5.23,0,0,0-1-2.21.64.64,0,0,0-.25-.16,3.26,3.26,0,0,1-2-3.1q0-6.11,0-12.22a3.19,3.19,0,0,1,2-3A1.19,1.19,0,0,0,9,5.56a6.06,6.06,0,0,0,1-4.09A1.1,1.1,0,0,1,11.28.17h6.8c.88,0,1.23.4,1.24,1.27a18,18,0,0,0,.13,2.17,5.36,5.36,0,0,0,1,2.2.52.52,0,0,0,.2.14,3.21,3.21,0,0,1,1.81,3c0,.1,0,.21,0,.31,0,.32-.11.68.4.79.24.05.36.33.35.62,0,.59,0,1.19,0,1.78S23.18,13.18,22.52,13.38ZM8,15c0,2,0,4.08,0,6.12a2,2,0,0,0,2,2.06h9.2a2,2,0,0,0,2.06-2.06q0-6.11,0-12.22a1.94,1.94,0,0,0-2-2q-4.68,0-9.35,0A1.9,1.9,0,0,0,8,8.92Q8,12,8,15Z"/></svg>