<svg id="Capa_1" data-name="Capa 1" xmlns="http://www.w3.org/2000/svg" viewBox="0 0 30 30"><defs><style>.cls-1{fill:#585858;}</style></defs><title>nav-drones</title><circle class="cls-1" cx="23.36" cy="23.52" r="2.56"/><circle class="cls-1" cx="23.36" cy="6.48" r="2.56"/><circle class="cls-1" cx="6.48" cy="23.52" r="2.56"/><circle class="cls-1" cx="6.48" cy="6.48" r="2.56"/><path class="cls-1" d="M23.36,0a6.48,6.48,0,0,0-6.15,8.52h2a4.6,4.6,0,1,1,1.89,2v2.06A6.48,6.48,0,1,0,23.36,0Z"/><path class="cls-1" d="M23.36,17a6.46,6.46,0,0,0-2.23.4V19.5a4.6,4.6,0,1,1-1.8,1.81H17.27A6.48,6.48,0,1,0,23.36,17Z"/><path class="cls-1" d="M10.52,21.31a4.6,4.6,0,1,1-2-1.9v-2a6.47,6.47,0,1,0,4,3.92Z"/><path class="cls-1" d="M8.54,10.59a4.6,4.6,0,1,1,2.06-2.07h2a6.48,6.48,0,1,0-4.08,4.09Z"/><path class="cls-1" d="M19,9.55h-8.4a1.08,1.08,0,0,0-1.08,1.08V19.2a1.08,1.08,0,0,0,1.08,1.08H19a1.08,1.08,0,0,0,1.08-1.08V10.63A1.08,1.08,0,0,0,19,9.55ZM17.22,15h-4.6V12.27h4.6Z"/></svg>