<svg id="Capa_1" data-name="Capa 1" xmlns="http://www.w3.org/2000/svg" viewBox="0 0 30 30"><defs><style>.cls-1{fill:#585858;}</style></defs><title>nav-ipod</title><path class="cls-1" d="M6.8,14.91q0-6.68,0-13.36A1.35,1.35,0,0,1,8.35,0h14.3A1.35,1.35,0,0,1,24.2,1.54q0,13.4,0,26.79a1.34,1.34,0,0,1-1.53,1.53H8.33A1.34,1.34,0,0,1,6.8,28.34Q6.8,21.62,6.8,14.91ZM15.5,13h6.94a.57.57,0,0,0,.64-.65q0-5.11,0-10.22c0-.46-.21-.67-.66-.67H8.58c-.45,0-.66.21-.66.67q0,5.09,0,10.18c0,.48.2.68.68.68Zm5.57,8.23A5.52,5.52,0,0,0,16,15.71a5.57,5.57,0,1,0-.87,11.11A5.52,5.52,0,0,0,21.07,21.27Z"/><path class="cls-1" d="M15.54,23.24a2,2,0,1,1,2-2A2,2,0,0,1,15.54,23.24Z"/></svg>