<svg id="Capa_1" data-name="Capa 1" xmlns="http://www.w3.org/2000/svg" viewBox="0 0 30 30"><defs><style>.cls-1{fill:#585858;}</style></defs><title>nav-gadget</title><path class="cls-1" d="M11.86,22.49a1,1,0,0,1-.35.07,3.59,3.59,0,0,0-3.74,1.68,3.13,3.13,0,0,1-3,1.25c-1.21-.1-2.43,0-3.65,0C.34,25.49,0,25.2,0,24.4c0-4.84,0-9.68,0-14.52a1.5,1.5,0,0,1,.25-.93C1.13,8,2,7.09,3,6.22A1.37,1.37,0,0,1,3.81,6C5.42,6,7,6,8.65,6c.9,0,1.15.37,1.15,1.2,0,4.38,0,8.77,0,13.15,0,.83.11,1.33,1.11,1.3.36,0,.73.37,1.09.57ZM8.71,7.74C8,8.61,6.9,9,6.88,10.09c-.06,3.59,0,7.18,0,10.77,0,.51.25.67.73.7,1.1.05,1.22,0,1.22-1.13q0-5.88,0-11.77C8.8,8.43,8.76,8.2,8.71,7.74ZM1,23.33l.35.19c.52-.77,1.45-1.53,1.49-2.33.16-3.55.07-7.11.07-10.67,0-.47-.15-.72-.68-.75C1.13,9.71,1,9.81,1,10.94q0,5.79,0,11.59C1,22.8,1,23.06,1,23.33Zm4.83-7.6c0-1.67,0-3.35,0-5,0-.73-.26-1-1-.94s-1,.14-1,.9q0,5,0,10c0,.83.39.92,1.07.94s.92-.33.91-1C5.84,19,5.86,17.34,5.86,15.73ZM1.69,24.19l.14.28c1.14,0,2.28,0,3.42,0a.83.83,0,0,0,.57-.59c0-.47-.15-1.34-.28-1.34a5,5,0,0,0-2.23.27A7.16,7.16,0,0,0,1.69,24.19ZM8.05,6.86H4.56c-.77,0-.62.59-.63,1s-.1.93.65,1C6.25,9.21,7,8,8.05,6.86ZM1.74,8.8c1.18.23,1.35,0,1-1ZM8,22.65c-1.12-.13-1.21,0-.93,1Z"/><path class="cls-1" d="M14.12,21.74c-1,0-1.91-1.1-1.68-1.71a5.13,5.13,0,0,1,1-1.81c4.1-4.17,8.25-8.28,12.36-12.43.51-.52.87-.64,1.39,0a21.23,21.23,0,0,0,1.67,1.68c.39.36.44.66,0,1.06a29.06,29.06,0,0,1-3.72,3.63c-3.65,2.43-6.22,6-9.46,8.79A6.54,6.54,0,0,1,14.12,21.74ZM23.2,11.38c-.14-.15-.25-.36-.38-.38a.77.77,0,0,0-.55.19c-.83.8-1.65,1.6-2.43,2.45-.14.15-.08.5-.11.76.24,0,.55,0,.69-.12.84-.79,1.64-1.61,2.45-2.43A3.46,3.46,0,0,0,23.2,11.38Z"/><path class="cls-1" d="M29.7,7.5,27,4.89c.45-.57.87-.49,1.33,0s.85.88,1.3,1.3S30.15,7.09,29.7,7.5Z"/><path class="cls-1" d="M12.92,22.07c-.28,0-.64,0-.82-.16s0-.5,0-1l.94.84Z"/></svg>