<svg id="Capa_1" data-name="Capa 1" xmlns="http://www.w3.org/2000/svg" viewBox="0 0 30 30"><defs><style>.cls-1{fill:#585858;}</style></defs><title>nav-camaras</title><path class="cls-1" d="M24.55,25.8H5.46l-.09,0a4.3,4.3,0,0,1-.62-.11A3.42,3.42,0,0,1,2.2,22.35q0-5.84,0-11.68A3.44,3.44,0,0,1,4.5,7.42a3.37,3.37,0,0,1,1.13-.19h3a.14.14,0,0,0,.14-.09l1-2A1,1,0,0,1,10,4.78a2.37,2.37,0,0,1,.27-.21A2,2,0,0,1,11.4,4.2h7.42a2.18,2.18,0,0,1,1,.46,1.15,1.15,0,0,1,.39.49l0,.08.91,1.92c0,.06.06.09.12.08h3a3.39,3.39,0,0,1,.56,0A3.42,3.42,0,0,1,27.8,10.6q0,5.91,0,11.83a3.1,3.1,0,0,1-.07.65,3.43,3.43,0,0,1-3,2.69Zm-3.68-9.53A5.87,5.87,0,1,0,15,22.13,5.87,5.87,0,0,0,20.87,16.28Z"/><path class="cls-1" d="M15,11.88a4.39,4.39,0,1,1-4.39,4.35A4.39,4.39,0,0,1,15,11.88Z"/></svg>