<?xml version="1.0" encoding="utf-8"?>
<!-- Generator: Adobe Illustrator 21.0.0, SVG Export Plug-In . SVG Version: 6.00 Build 0)  -->
<svg version="1.1" id="Capa_1" xmlns="http://www.w3.org/2000/svg" xmlns:xlink="http://www.w3.org/1999/xlink" x="0px" y="0px"
	 viewBox="0 0 128 128" style="enable-background:new 0 0 128 128;" xml:space="preserve">
<style type="text/css">
	.st0{fill:#55595C;}
</style>
<g id="sTT3YH.tif">
	<g>
		<path class="st0" d="M74.8,120c-23.1,0-46.3,0-69.4,0c-1.1,0-1.3-0.2-1.2-1.3c0.1-1.9,0-3.9,0-5.8c12.1,0,24.3,0,36.5,0
			c-0.1-0.5-0.3-0.6-0.5-0.7C23.8,102.2,14.5,87.6,13,68.5c-1.4-17.8,4.6-33.2,17.9-45.3C46,9.7,63.7,5.4,83.3,10.6
			c28.7,7.6,46.1,36.9,39.6,65.8c-5.1,22.7-23.4,39.6-46.5,43C75.8,119.5,75.2,119.5,74.8,120z M68.1,47c7.4,0,13.4-6,13.4-13.4
			c0-7.4-6.1-13.5-13.4-13.6c-7.3,0-13.5,6.2-13.5,13.5C54.6,41,60.7,47,68.1,47z M68.3,83.2c-7.3,0-13.4,6.1-13.3,13.3
			c0.1,7.2,6,13.1,13.3,13.1c7.3,0,13.3-6,13.2-13.3C81.5,89,75.5,83.2,68.3,83.2z M86.2,64.4c0,7,6,12.8,13.3,12.9
			c7.4,0,13.6-5.8,13.6-12.8c0-7-6.2-12.9-13.6-12.9C92.2,51.6,86.2,57.4,86.2,64.4z M37.4,51.3c-7.2,0-13.2,5.9-13.1,13.1
			c0,7,6,13,13.1,13c7.1,0,13-5.9,13.1-12.9C50.6,57.3,44.6,51.3,37.4,51.3z M67.2,72.8c4.5,0,8.2-3.6,8.2-8c0-4.4-3.6-8.1-8.1-8.2
			c-4.4-0.1-8.1,3.6-8.1,8.1C59.1,69.1,62.7,72.7,67.2,72.8z"/>
	</g>
</g>
</svg>
