<svg id="Capa_1" data-name="Capa 1" xmlns="http://www.w3.org/2000/svg" viewBox="0 0 30 30"><defs><style>.cls-1{fill:#585858;}</style></defs><title>nav-coches</title><path class="cls-1" d="M23.82,20l-.25,0A2,2,0,0,1,22,18.32a2,2,0,0,1,1.84-2.26,1.95,1.95,0,0,1,1,3.69,1.88,1.88,0,0,1-.71.2h-.28Z"/><path class="cls-1" d="M6.49,20l-.26,0a2,2,0,0,1-1.55-1.6,2,2,0,0,1,1.83-2.26A1.95,1.95,0,0,1,7,19.92l-.22,0Z"/><path class="cls-1" d="M30,13.8a2.42,2.42,0,0,1-.11,1,1.5,1.5,0,0,1-1.24,1,5.74,5.74,0,0,1-.63,0h-.08l.13.15a13.91,13.91,0,0,1,1.41,1.91,5.74,5.74,0,0,1,.38.75.67.67,0,0,1-.61.94H26.82a3.24,3.24,0,0,0-1.14-4.26,3.27,3.27,0,0,0-4.53,1.08,3.22,3.22,0,0,0-.4,1,3.16,3.16,0,0,0,0,1.1,3.34,3.34,0,0,0,.35,1.05H9.49A3.16,3.16,0,0,0,9.7,17a3.2,3.2,0,0,0-1.18-1.62,3.25,3.25,0,0,0-3.82,0,3.21,3.21,0,0,0-1.27,1.89,3.15,3.15,0,0,0,.29,2.26H2A1.72,1.72,0,0,1,.76,19a1.59,1.59,0,0,1-.45-1,2.37,2.37,0,0,1,.36-1.49,4.24,4.24,0,0,1,1.12-1.21,7.49,7.49,0,0,1,1.82-1A12.74,12.74,0,0,1,6,13.67a16,16,0,0,1,1.6-.22L9,13.36c.35,0,.71,0,1.06,0l.94,0a.17.17,0,0,0,.14-.06l.68-.69c.56-.56,1.12-1.12,1.67-1.69a2.15,2.15,0,0,1,.83-.52,5.32,5.32,0,0,1,1.09-.26A10.94,10.94,0,0,1,17.27,10c.49,0,1,.05,1.46.11a14,14,0,0,1,2.06.41,8.48,8.48,0,0,1,1.49.56,11.38,11.38,0,0,1,1.09.64,21,21,0,0,1,2.59,2l.5.46a.1.1,0,0,0,.07,0l.71-.09,1.1-.14,1.17-.15Zm-16.56,0h8.48l0,0A6,6,0,0,0,20,12.28a7.66,7.66,0,0,0-3.2-.69c-.3,0-.61,0-.91,0a1.26,1.26,0,0,0-.9.44l-1.32,1.48Zm5.82,2.51h.62a.57.57,0,0,0,.48-.86.56.56,0,0,0-.51-.28H18.59a.57.57,0,0,0,.06,1.13Z"/></svg>