<svg id="Capa_1" data-name="Capa 1" xmlns="http://www.w3.org/2000/svg" viewBox="0 0 30 30"><defs><style>.cls-1{fill:#585858;}</style></defs><title>nav-robotica</title><path class="cls-1" d="M7.36,24H3.16a1,1,0,0,0-1,1v3.93a1,1,0,0,0,1,1H21.64a1,1,0,0,0,1-1V25a1,1,0,0,0-1-1h-5a.87.87,0,0,1-.75-.43L8.82,11.3a.31.31,0,0,0-.55,0,3,3,0,0,1-3,1.71,7.65,7.65,0,0,1-3.19-.63.31.31,0,0,0-.4.44L7.62,23.52A.29.29,0,0,1,7.36,24Z"/><path class="cls-1" d="M15.64,4.44H10.47a.28.28,0,0,0-.27.39,5.63,5.63,0,0,1,.4,2,3.87,3.87,0,0,1-.35,1.62.28.28,0,0,0,.26.4h5.12a.2.2,0,0,1,.2.2v.23a.68.68,0,0,0,.68.68H19a.6.6,0,0,1,.44.19l2.51,2.67a1.92,1.92,0,0,0,2.43.3l5.4-3.47a.57.57,0,0,0,.14-.82L29.26,8a.57.57,0,0,0-.76-.13l-4.55,3a.89.89,0,0,1-1.24-.26L21.26,8.36a2.9,2.9,0,0,1,0-3.24l1.33-1.95a.89.89,0,0,1,1.18-.27l4.64,2.69a.57.57,0,0,0,.75-.16l.61-.87a.57.57,0,0,0-.17-.81L24,.28a1.92,1.92,0,0,0-2.55.51L19.57,3.32a.6.6,0,0,1-.48.25H16.52a.68.68,0,0,0-.68.68h0A.2.2,0,0,1,15.64,4.44Z"/><circle class="cls-1" cx="4.42" cy="6.62" r="1.11"/><path class="cls-1" d="M4.42,2.34A4.28,4.28,0,1,0,8.7,6.62,4.28,4.28,0,0,0,4.42,2.34ZM4.42,9A2.41,2.41,0,1,1,6.83,6.62,2.41,2.41,0,0,1,4.42,9Z"/></svg>