<svg id="Capa_1" data-name="Capa 1" xmlns="http://www.w3.org/2000/svg" viewBox="0 0 30 30"><defs><style>.cls-1{fill:#585858;}</style></defs><title>nav-auriculares</title><path class="cls-1" d="M28.06,9.61l.48-1.33a1.74,1.74,0,0,0-.25-1.64,16.68,16.68,0,0,0-26.6,0,1.74,1.74,0,0,0-.25,1.64l.48,1.33A14.36,14.36,0,0,0,.23,16.43c0,3.76.69,5.62,2.36,10.11h0a.37.37,0,0,0,.35.24H4l.74,2a1.7,1.7,0,0,0,1.6,1.12H8.32L4.53,19.53l-1.73.63a1.11,1.11,0,0,0-.67.69,17,17,0,0,1-.51-4.42A13,13,0,0,1,5.54,7.11a13.51,13.51,0,0,1,18.93,0,13,13,0,0,1,3.91,9.32,17,17,0,0,1-.51,4.42,1.11,1.11,0,0,0-.67-.69l-1.73-.63L21.68,29.94h1.94a1.7,1.7,0,0,0,1.6-1.12l.74-2h1.09a.38.38,0,0,0,.35-.25c1.67-4.49,2.36-6.35,2.36-10.11A14.36,14.36,0,0,0,28.06,9.61Z"/><path class="cls-1" d="M23.13,18.68a1.4,1.4,0,0,0-1.8.84l-2.81,7.72a2,2,0,0,0,1.89,2.7h.33l3.9-10.71Z"/><path class="cls-1" d="M8.67,19.52a1.4,1.4,0,0,0-1.8-.84l-1.51.55,3.9,10.71h.33a2,2,0,0,0,1.89-2.7Z"/></svg>