<svg id="Capa_1" data-name="Capa 1" xmlns="http://www.w3.org/2000/svg" viewBox="0 0 30 30"><defs><style>.cls-1{fill:#585858;}</style></defs><title>nav-altavoces</title><path class="cls-1" d="M4.58,25.28V3.53a.07.07,0,0,0,0-.05.71.71,0,0,0,0-.08,3.16,3.16,0,0,1,.1-.64A3.46,3.46,0,0,1,6.83.41a3.2,3.2,0,0,1,1-.22h.08L8,.17H22.07a.31.31,0,0,0,.13,0l.26,0a3.22,3.22,0,0,1,.49.1,3.46,3.46,0,0,1,2.24,2,2.7,2.7,0,0,1,.21.82.08.08,0,0,0,0,.05V25.6a.09.09,0,0,0,0,.06,1.61,1.61,0,0,1-.06.36,3.46,3.46,0,0,1-3.17,2.6h-.58l0,0a.34.34,0,0,0,0,.07,1.06,1.06,0,0,1,0,.22,1.29,1.29,0,0,1-.92,1l-.21,0-.06,0h-.41l0,0-.14,0a1.15,1.15,0,0,1-.26-.08,1.29,1.29,0,0,1-.78-1.14v0c0-.06,0-.07-.08-.07H11.38l0,0a.35.35,0,0,0,0,.06c0,.08,0,.15,0,.22a1.28,1.28,0,0,1-.93,1l-.21,0-.05,0H9.73l-.08,0-.22,0a1.3,1.3,0,0,1-.91-1,1.72,1.72,0,0,1,0-.25c0-.06,0-.07-.07-.07H8.07a4.15,4.15,0,0,1-.45,0,3.26,3.26,0,0,1-.51-.11A3.43,3.43,0,0,1,5,26.85a3.31,3.31,0,0,1-.42-1.43s0-.05,0-.08A.07.07,0,0,0,4.58,25.28ZM8.51,18.5A6.52,6.52,0,1,0,15.06,12,6.51,6.51,0,0,0,8.51,18.5ZM15,3.35A3.63,3.63,0,1,0,18.65,7,3.63,3.63,0,0,0,15,3.35Z"/><path class="cls-1" d="M19,18.51a4,4,0,1,1-4-4A4,4,0,0,1,19,18.51Z"/><path class="cls-1" d="M16.79,7A1.76,1.76,0,1,1,15,5.22,1.76,1.76,0,0,1,16.79,7Z"/></svg>