<svg id="Capa_1" data-name="Capa 1" xmlns="http://www.w3.org/2000/svg" viewBox="0 0 30 30"><defs><style>.cls-1{fill:#585858;}</style></defs><title>nav-gafas</title><g id="oGDkrO.tif"><path class="cls-1" d="M0,10.46c.7-.09,1.37-.19,2-.26,1.33-.14,2.66-.3,4-.37a17,17,0,0,1,5.63.62,12.56,12.56,0,0,0,7-.06,15.4,15.4,0,0,1,5.45-.54c1.93.14,3.86.39,5.79.59l.06,0a1.27,1.27,0,0,1,0,.16c0,.57,0,1.13,0,1.7,0,.09-.06.22-.12.25-.77.26-.87.88-.85,1.56A8.31,8.31,0,0,1,28.61,17a4.17,4.17,0,0,1-3.26,3,9.5,9.5,0,0,1-4.71-.16,5.45,5.45,0,0,1-3-2.25,8.88,8.88,0,0,1-1.29-2.79,5.14,5.14,0,0,0-.37-1,1,1,0,0,0-1.89-.06,3.74,3.74,0,0,0-.36.9,9.58,9.58,0,0,1-1.26,2.8,6.23,6.23,0,0,1-4.72,2.77,8.84,8.84,0,0,1-3-.12,4.58,4.58,0,0,1-3.49-3.49,8.23,8.23,0,0,1-.32-2.67c0-.74-.08-.91-.75-1.21-.07,0-.17-.12-.18-.18C0,11.79,0,11.14,0,10.46Zm7.15.21c-.33,0-.83,0-1.33.08a8.93,8.93,0,0,0-2.32.44,1.57,1.57,0,0,0-1.07,1.17,8.91,8.91,0,0,0,0,4.18,3.4,3.4,0,0,0,3,2.81,7.05,7.05,0,0,0,4.71-.88,3.64,3.64,0,0,0,1.29-1.24,7.92,7.92,0,0,0,1.17-3.56,2,2,0,0,0-1.26-2.25l-.16-.08A9.94,9.94,0,0,0,7.15,10.68Zm20.7,3.55c0-.25-.09-.73-.13-1.22a2.09,2.09,0,0,0-1.88-2,13.84,13.84,0,0,0-4.91-.18,7.61,7.61,0,0,0-2.46.71,1.89,1.89,0,0,0-1.09,1.83,8,8,0,0,0,1.11,3.79,3.35,3.35,0,0,0,1.22,1.27,6.93,6.93,0,0,0,5.2.87,3.23,3.23,0,0,0,2.55-2.35A9.15,9.15,0,0,0,27.85,14.23Z"/></g></svg>