<svg xmlns="http://www.w3.org/2000/svg" viewBox="0 0 128 128"><defs><style>.cls-1{fill:#585858;}</style></defs><title>iconos-pcgaming</title><g id="Capa_2" data-name="Capa 2"><path class="cls-1" d="M76.36,28.56H68.07V11.34c0-3.6-2.82-5.63-6.42-5.63H39.9v6.73H55.24c3.6,0,6.1,1.88,6.1,5.48v10.8h-9.7c-8.92,0-15.8,6.26-15.8,15.18v61.18c0,8.92,6.89,17.21,15.8,17.21H76.36c8.92,0,15.8-8.29,15.8-17.21V43.74C92.17,34.82,85.28,28.56,76.36,28.56ZM70.1,65c0,2.35-3,4.38-6.1,4.38s-6.1-2-6.1-4.38V47.49c0-2.35,3-4.38,6.1-4.38s6.1,2,6.1,4.38Z"/></g></svg>