<svg xmlns="http://www.w3.org/2000/svg" viewBox="0 0 128 128"><defs><style>.cls-1{fill:#585858;}</style></defs><title>iconos-pcgaming</title><g id="Capa_2" data-name="Capa 2"><g id="_2Xz9ko" data-name="2Xz9ko"><path class="cls-1" d="M92.54,101.26c2.29,3.75,4.71,7.44,6.87,11.29,3.06,5.46.61,10-5.61,10q-29.77.19-59.54,0c-5.88,0-8.41-4.59-5.61-9.77,2.09-3.88,4.52-7.58,7-11.69-15.56-11-23.89-26-23.65-45,.18-14.32,5.83-26.68,16.3-36.59a52.06,52.06,0,0,1,73.9,2.4C121.77,43,122.28,80.07,92.54,101.26ZM64,86.29c16,0,29.39-13.34,29.16-29.09s-13.43-28.85-29-28.91S34.67,42,34.93,57.54A29.2,29.2,0,0,0,64,86.29Z"/><path class="cls-1" d="M64.13,74.26A17,17,0,0,1,47,57.24a17,17,0,1,1,34.1.24A17,17,0,0,1,64.13,74.26Z"/></g></g></svg>