<svg xmlns="http://www.w3.org/2000/svg" viewBox="0 0 128 128"><defs><style>.cls-1{fill:#585858;}</style></defs><title>iconos-pcgaming</title><g id="Capa_2" data-name="Capa 2"><g id="vY8h83"><path class="cls-1" d="M114.49,54.38a5.3,5.3,0,0,1-4.1-2.09A60.49,60.49,0,0,0,86.69,34.9c-25.44-10-48.5-5.74-69.11,12.14-.44.38-.82.84-1.25,1.24a4.14,4.14,0,0,1-6-.15c-1.45-1.52-2.87-3.06-4.28-4.62a4,4,0,0,1,.21-5.94C18.36,26.05,32.47,18.35,49,16c28.79-4.14,52.91,5,72.29,26.66a8.61,8.61,0,0,1,1.63,2.9,3.2,3.2,0,0,1-1,3.54c-1.83,1.6-3.73,3.12-5.67,4.59A6.23,6.23,0,0,1,114.49,54.38Z"/><path class="cls-1" d="M61.39,43.35c16.74.3,29.36,5.87,39.6,16.81a5.6,5.6,0,0,1,1.79,3.63,3.55,3.55,0,0,1-1.38,3.08c-1.4,1.13-2.79,2.28-4.21,3.4a4,4,0,0,1-5.81-.47,36.41,36.41,0,0,0-21.13-12c-13-2.35-24.34,1.31-34,10.36a13.23,13.23,0,0,1-3.15,2.33,3,3,0,0,1-3.56-.84c-1.46-1.5-2.9-3-4.29-4.6a4,4,0,0,1,.45-5.55c7.34-7.32,15.86-12.6,26.08-14.79C55.53,43.94,59.34,43.64,61.39,43.35Z"/><path class="cls-1" d="M40.52,81.87A13.71,13.71,0,0,1,42,79c4.64-5.18,10.25-8.73,17.27-9.64a26.44,26.44,0,0,1,23.2,8c2,2.05,1.81,4.51-.4,6.3-1,.82-2.08,1.57-3,2.46a3.66,3.66,0,0,1-5.56-.32c-4.7-5.38-15.27-6.47-21.73.64a10,10,0,0,1-2.71,2.16,3.16,3.16,0,0,1-4-.82c-1.15-1.22-2.33-2.41-3.4-3.71A12.69,12.69,0,0,1,40.52,81.87Z"/><path class="cls-1" d="M52.55,102.2a10.61,10.61,0,0,1,21.21.34,10.61,10.61,0,1,1-21.21-.34Z"/></g></g></svg>