<svg xmlns="http://www.w3.org/2000/svg" viewBox="0 0 128 128"><defs><style>.cls-1{fill:#585858;}</style></defs><title>iconos-pcgaming</title><g id="Capa_2" data-name="Capa 2"><path class="cls-1" d="M122.5,100.25a5.59,5.59,0,0,1-5,2.25q-53.5-.09-107,0a5.56,5.56,0,0,1-5-2.25V96.74L17.36,85.93c.65-.59,1.25-1.24,1.94-1.77a5.4,5.4,0,0,1,3.77-1.32c.48,0,1,0,1.46,0,26.31,0,52.62,0,78.93-.05a9.09,9.09,0,0,1,6.77,2.71c4,3.83,8.16,7.51,12.26,11.24ZM64,95.17H78.31a18.21,18.21,0,0,0,2.33-.07c.25,0,.68-.47.64-.65a4,4,0,0,0-3.58-3.13q-13.72,0-27.44,0a3.73,3.73,0,0,0-3.56,3.14.72.72,0,0,0,.38.59,14.21,14.21,0,0,0,2,.12Zm0,4c1.84,0,3.68,0,5.52,0a3.39,3.39,0,0,0,1.7-.18,2.49,2.49,0,0,0,1-1.55c.11-.75-.63-.85-1.22-.85l-12.5,0a10.41,10.41,0,0,0-1.74.05c-.33.06-.83.31-.88.55-.09.42,0,1.12.23,1.32a3.42,3.42,0,0,0,1.82.65C59.93,99.26,62,99.21,64,99.21Z"/><path class="cls-1" d="M63.77,81.4H25.2a21.8,21.8,0,0,1-2.34,0,3.33,3.33,0,0,1-3.17-3.23,16.88,16.88,0,0,1,0-1.75q0-22.94,0-45.88a16.82,16.82,0,0,1,0-1.75,3.34,3.34,0,0,1,3.17-3.22,15.6,15.6,0,0,1,1.75,0h78.61c.58,0,1.17,0,1.75,0a3.36,3.36,0,0,1,3.32,3.38c.05.58,0,1.17,0,1.75q0,22.8,0,45.59a5.16,5.16,0,0,0,0,.58c.37,3.2-1.74,4.67-4.52,4.62-7.6-.15-15.2-.05-22.79-.05ZM63.86,77h36.23c.68,0,1.36,0,2,0,1.69-.08,1.71-.1,1.77-1.91,0-.68,0-1.36,0-2q0-13.44,0-26.88c0-4.77,0-9.54,0-14.32,0-1.8-.08-1.82-1.77-1.9-.49,0-1,0-1.46,0H27.33c-.58,0-1.17,0-1.75,0-1.19-.08-1.52.58-1.49,1.62,0,.68,0,1.36,0,2q0,19.87,0,39.74c0,.58,0,1.17,0,1.75.07,1.8.09,1.82,1.78,1.9.68,0,1.36,0,2,0Z"/></g></svg>