<svg xmlns="http://www.w3.org/2000/svg" viewBox="0 0 128 128"><defs><style>.cls-1{fill:#585858;}</style></defs><title>iconos-pcgaming</title><g id="Capa_2" data-name="Capa 2"><path class="cls-1" d="M72.93,104.11l-6.38,0a1.92,1.92,0,0,1-1.91-1.92V89.66a1.92,1.92,0,0,1,1.92-1.92h9.12V81.1H11V19.37H99.24V30.17h5.58V14.25a1.92,1.92,0,0,0-1.92-1.92H6.25a1.92,1.92,0,0,0-1.92,1.92V85.82a1.92,1.92,0,0,0,1.92,1.92H42.49a1.92,1.92,0,0,1,1.92,1.93l-.07,12.49a1.92,1.92,0,0,1-1.91,1.91l-6.21,0A1.92,1.92,0,0,0,34.31,106h0a1.92,1.92,0,0,0,1.92,1.92H72.92a1.92,1.92,0,0,0,0-3.84Z"/><path class="cls-1" d="M114.59,34.36H88.1A9.08,9.08,0,0,0,79,43.44v72.23h44.64V43.44A9.08,9.08,0,0,0,114.59,34.36Zm-12.33,72.22a5.08,5.08,0,1,1,5.08-5.08A5.08,5.08,0,0,1,102.26,106.59ZM114.5,58H90V53.24H114.5Zm0-8.71H90V44.53H114.5Z"/><path class="cls-1" d="M72.93,104.11l-6.38,0a1.92,1.92,0,0,1-1.91-1.92V89.66a1.92,1.92,0,0,1,1.92-1.92h9.12V81.1H11V19.37H99.24V30.17h5.58V14.25a1.92,1.92,0,0,0-1.92-1.92H6.25a1.92,1.92,0,0,0-1.92,1.92V85.82a1.92,1.92,0,0,0,1.92,1.92H42.49a1.92,1.92,0,0,1,1.92,1.93l-.07,12.49a1.92,1.92,0,0,1-1.91,1.91l-6.21,0A1.92,1.92,0,0,0,34.31,106h0a1.92,1.92,0,0,0,1.92,1.92H72.92a1.92,1.92,0,0,0,0-3.84Z"/><path class="cls-1" d="M114.59,34.36H88.1A9.08,9.08,0,0,0,79,43.44v72.23h44.64V43.44A9.08,9.08,0,0,0,114.59,34.36Zm-12.33,72.22a5.08,5.08,0,1,1,5.08-5.08A5.08,5.08,0,0,1,102.26,106.59ZM114.5,58H90V53.24H114.5Zm0-8.71H90V44.53H114.5Z"/><polygon class="cls-1" points="75 44.38 68.62 44.38 68.62 25.67 40.53 25.67 40.53 44.38 30.35 44.38 54.57 76.08 75 49.35 75 44.38"/></g></svg>