<svg xmlns="http://www.w3.org/2000/svg" viewBox="0 0 128 128"><defs><style>.cls-1{fill:#585858;}</style></defs><title>iconos-pcgaming</title><g id="Capa_2" data-name="Capa 2"><path class="cls-1" d="M5.06,100.43V40.31c.15-.36.33-.71.44-1.08a7.74,7.74,0,0,1,7.81-5.92q50.72,0,101.45.06A8.06,8.06,0,0,1,119.61,35c1.45,1.23,2.25,3.24,3.33,4.91v60.91a9.89,9.89,0,0,1-6.68,6.68H84.83c-1.18-1.27-2.81-2.35-3.46-3.85C78.55,97.18,76,90.6,73.43,84a9.8,9.8,0,0,0-8.92-6.53A9.52,9.52,0,0,0,55.2,83.7c-2.31,5.91-4.72,11.77-7,17.69a11.21,11.21,0,0,1-4.64,6.1H12.13A9.41,9.41,0,0,1,5.06,100.43ZM50.33,70.58a13,13,0,1,0-13.19,13A13,13,0,0,0,50.33,70.58Zm53.88,0a13,13,0,0,0-26.09-.15,13,13,0,1,0,26.09.15Z"/><path class="cls-1" d="M110.74,27.43H17.88c-.28-3.19,2-6,5.47-6.66a16.23,16.23,0,0,1,3.12-.26q37.71,0,75.43,0a13.79,13.79,0,0,1,5.13,1C109.44,22.53,110.7,24.53,110.74,27.43Z"/><path class="cls-1" d="M54.19,98.8c1.55-3.78,2.76-7.38,4.48-10.72a6.38,6.38,0,0,1,11-.3,16.12,16.12,0,0,1,1.37,2.81c1,2.66,2,5.34,3.09,8.21Z"/></g></svg>