<svg xmlns="http://www.w3.org/2000/svg" viewBox="0 0 128 128"><defs><style>.cls-1{fill:#585858;}</style></defs><title>iconos-pcgaming</title><g id="Capa_2" data-name="Capa 2"><g id="UY45Ts.tif"><path class="cls-1" d="M64,61.67q-10,0-20,0c-4.19,0-5.78-1.52-5.79-5.61,0-10.45,0-31.73,0-42.18,0-5.35,3.23-8.52,8.62-8.53q17.16,0,34.33,0c5.37,0,8.51,3.13,8.53,8.54,0,10.54,0,31.91,0,42.45,0,3.89-1.48,5.31-5.43,5.32C77.48,61.68,70.72,61.67,64,61.67Z"/><path class="cls-1" d="M64.13,64.89c6.67,0,13.34,0,20,0,4,0,5.5,1.52,5.53,5.56,0,1.44,0,2.88,0,4.33C89.62,78.32,87.95,80,84.32,80c-11.45,0-22.89,0-34.34,0-2.25,0-4.51,0-6.76,0-3.16-.08-5-1.91-5-5,0-1.53,0-3.06,0-4.6,0-3.73,1.72-5.47,5.41-5.48C50.43,64.87,57.28,64.89,64.13,64.89Z"/><path class="cls-1" d="M59.4,101.53c0-4.9,0-9.31,0-13.71,0-3.65,1-4.59,4.68-4.57,3.45,0,4.39,1,4.4,4.56,0,4.41,0,8.82,0,13.56,1,.05,1.83.14,2.68.14,5,0,9.91,0,14.87,0,2.93,0,3.68,1,3.66,4.39s-.86,4.42-3.66,4.42q-22,0-44.06,0c-2.74,0-3.76-1.18-3.81-4.06-.06-3.53.72-4.68,3.63-4.75,4.68-.1,9.37,0,14.05,0Z"/><path class="cls-1" d="M92.86,60c0-3.06,0-6.11,0-9.17s1.47-4.32,4.55-4.33S102,47.75,102,50.77q.07,9.44,0,18.88c0,3-1.17,4-4.4,4-3.51,0-4.66-.9-4.73-4C92.8,66.47,92.86,63.23,92.86,60Z"/><path class="cls-1" d="M34.94,60.31c0,3.23,0,6.47,0,9.7,0,2.48-1.2,3.58-3.59,3.66-3.87.14-5.22-.55-5.28-3.31-.14-6.74-.15-13.48-.06-20.21,0-2.66,1.67-3.75,4.85-3.66,2.84.09,4,1.15,4.06,3.84C35,53.66,34.94,57,34.94,60.31Z"/><path class="cls-1" d="M77.71,118.24a4.54,4.54,0,1,1,9.07-.1,4.54,4.54,0,0,1-9.07.1Z"/><path class="cls-1" d="M45.83,122.67a4.55,4.55,0,0,1-4.52-4.39,4.42,4.42,0,1,1,8.83-.21A4.58,4.58,0,0,1,45.83,122.67Z"/><path class="cls-1" d="M64.08,113.62a4.5,4.5,0,0,1-.09,9,4.5,4.5,0,1,1,.09-9Z"/></g></g></svg>