<svg xmlns="http://www.w3.org/2000/svg" viewBox="0 0 128 128"><defs><style>.cls-1{fill:#585858;}</style></defs><title>iconos-pcgaming</title><g id="Capa_2" data-name="Capa 2"><rect class="cls-1" x="45.33" y="43.46" width="41.83" height="41.84"/><path class="cls-1" d="M119.58,46V40.41H105.71V24.92H90.22V10H84.67V24.92H75.88V10H70.33V24.92H62.16V10H56.61V24.92H47.82V10H42.27V24.92H26.77v15.5H8.42V46H26.77v8.79H8.42V60.3H26.77v8.17H8.42V74H26.77v8.79H8.42v5.55H26.77v15.5h15.5V118h5.55V103.86h8.79V118h5.55V103.86h8.17V118h5.55V103.86h8.79V118h5.55V103.86h15.5V88.36h13.87V82.81H105.71V74h13.87V68.47H105.71V60.3h13.87V54.75H105.71V46ZM97.77,95.29h-63v-63h63Z"/></g></svg>