<svg xmlns="http://www.w3.org/2000/svg" viewBox="0 0 128 128"><defs><style>.cls-1{fill:#585858;}</style></defs><title>iconos-pcgaming</title><g id="Capa_2" data-name="Capa 2"><path class="cls-1" d="M82.2,64.06H53.68c0-2.78.08-5.29,0-7.8-.25-6.84-4.3-10.77-11.1-10.8-6.29,0-12.58,0-18.86,0-5.15,0-7.76-1.7-7.85-5.1s2.74-5.4,8-5.4H74.44c4.41,0,8.83,0,13.24-.06,2.49,0,4.26-1.61,4-3.87-.2-1.57.19-4.67-6.43-4.67-20.74,0-41.48,0-62.22,0a21.9,21.9,0,0,0-6.5.94A13.66,13.66,0,0,0,7.31,41.73c1,7.08,6.39,12.13,13.42,12.28s13.9,0,20.85,0c1.57,0,3.32-.14,3.41,2.09.11,2.58,0,5.17,0,7.92-11,0-21.45,0-31.92,0-4.37,0-5.95,1.66-6,6q0,12.58,0,25.15c0,4.8,1.53,6.38,6.3,6.38q36.07,0,72.15,0c4.76,0,6.24-1.55,6.26-6.42,0-7.17,0-14.34,0-21.51C91.84,64.4,91.5,64.06,82.2,64.06Zm-4.08,7.37h4.27V76.1H78.12Zm-20.59.05h4.36V76.1H57.53ZM47.3,71.38h4.36V76H47.3Zm0,9.68h4.2v4.53h-4.2ZM26.67,71.49h4.22v4.59H26.67ZM20.78,95.11H16.24v-4.5h4.54Zm0-9.44H16.24v-4.5h4.54Zm0-9.63H16.14v-4.5h4.68Zm5.69,5.06h4.58v4.55H26.51ZM31.1,95H26.51v-4.3H31.1ZM37,71.49h4.22v4.59H37Zm0,9.57h4.24v4.53H37ZM61.91,95H37.08V90.68H61.91ZM62,85.63H57.53V81.17H62ZM72.38,95H67.75V90.58h4.62Zm-4.69-9.34V81h4.64v4.6Zm4.69-9.58H67.66V71.51h4.73Zm10,18.86H78.09V90.71h4.27Zm0-9.25h-4.2V81.1h4.2Z"/><path class="cls-1" d="M114.7,65h-1.33a3.64,3.64,0,0,0,.14-1V52.26A10.28,10.28,0,0,0,103.24,42H62.18a3.64,3.64,0,0,0,0,7.29h41.05a3,3,0,0,1,3,3V64a3.64,3.64,0,0,0,.15,1H105A5.89,5.89,0,0,0,98.83,71V94.93c0,3.49,2.7,6.74,6.19,6.74h9.68c3.49,0,6.19-3.25,6.19-6.74v-24A5.89,5.89,0,0,0,114.7,65Zm-2.45,14.27c0,.92-1.16,1.72-2.39,1.72s-2.39-.8-2.39-1.72V72.39c0-.92,1.16-1.72,2.39-1.72s2.39.8,2.39,1.72Z"/></g></svg>